<svg id="Layer_1" data-name="Layer 1" xmlns="http://www.w3.org/2000/svg" viewBox="0 0 360 339.84"><defs><style>.cls-1{fill:none;stroke-width:21px;}.cls-1,.cls-2{stroke:#cccccb;stroke-linecap:round;stroke-linejoin:round;}.cls-2{fill:#cccccb;stroke-width:8px;}</style></defs><title>Arrows</title><circle class="cls-1" cx="186.16" cy="169.88" r="154.18"/><path class="cls-2" d="M296.32,168.78A11.09,11.09,0,0,0,293.1,162a8.6,8.6,0,0,0-.64-.58L193.2,62.12a11.15,11.15,0,1,0-15.77,15.77l80.88,80.87H87.07a11.15,11.15,0,1,0,0,22.3H258.22l-80.8,80.81a11.15,11.15,0,0,0,0,15.76h0a11.14,11.14,0,0,0,15.77,0l99.08-99.07c.29-.24.57-.49.84-.76h0A11.15,11.15,0,0,0,296.32,168.78Z"/></svg>