<svg id="Layer_1" data-name="Layer 1" xmlns="http://www.w3.org/2000/svg" viewBox="0 0 360 339.84"><defs><style>.cls-1{fill:#404f5e;}</style></defs><title>CorpServ-Icon</title><path class="cls-1" d="M135,95.84a45.79,45.79,0,1,1,45.77,45.77A45.85,45.85,0,0,1,135,95.84Z"/><path class="cls-1" d="M280.25,22.18a45.78,45.78,0,1,1-45.81,45.76A45.69,45.69,0,0,1,280.25,22.18Z"/><path class="cls-1" d="M127.23,67.9A45.78,45.78,0,1,1,80.7,22.16,45.79,45.79,0,0,1,127.23,67.9Z"/><path class="cls-1" d="M121,215.05c19.56.36,39.13.13,58.69.13,20.33,0,40.65.1,61-.07a14.94,14.94,0,0,1,3.24.25c-.26-2.76-.52-5.53-.75-8.3-.28-3.31-.59-6.61-1.16-9.87-3.65-20.91-12.53-37.35-26.49-49.42-1.65-1.43-3.44-2.63-5.16-4a.65.65,0,0,0-1,.05,3.49,3.49,0,0,1-.42.36c-11,9-23.07,12.25-36,9.84a44.17,44.17,0,0,1-20.42-10,1,1,0,0,0-1.45-.06c-12.33,8.62-21.47,21-27.3,37.23a93.16,93.16,0,0,0-5.1,23.94c-.22,2.67-.47,5.34-.72,8-.06.69-.13,1.39-.19,2.08A18.85,18.85,0,0,1,121,215.05Z"/><path class="cls-1" d="M344.78,200.14c.65.15,1.27.32,1.85.5-.14-1.27-.29-2.53-.44-3.79-.37-3.18-.75-6.36-1.12-9.54-.31-2.61-.61-5.23-.92-7.85-.37-3.18-.75-6.35-1.12-9.53-.3-2.59-.53-5.19-.9-7.76a61,61,0,0,0-6.44-20A62.49,62.49,0,0,0,310,116a1.14,1.14,0,0,0-1.37.05,51.16,51.16,0,0,1-56.74,0,1,1,0,0,0-1.37,0c-.11.08-.25.13-.37.2a62.46,62.46,0,0,0-26.57,28.38c-.13.27-.23.56-.34.83l.36.33a66.15,66.15,0,0,1,8,7.57,67.72,67.72,0,0,1,16,31.62,85.35,85.35,0,0,1,1.26,8.73c.38,3.64.86,7.26,1.28,10.89s.84,7.26,1.26,10.89c.08.64.18,1.27.27,2,1.47.11,2.88.25,4.29.31l5,.22v-2c0-20.81.09-41.62-.08-62.42,0-4.56,2.73-8,8.76-9.14,5.19-1,11.05-.72,16.56-.45,11.6.58,16.48,4.1,15.55,12.07-.63,5.31,0,10.58-.19,15.86-.25,8.78-1.61,8.31,12.93,8.48,9.45.1,12.78,1.86,12.79,8.31,0,8.9,0,3.76,0,12.66C329.91,200.91,337.92,198.6,344.78,200.14Z"/><path class="cls-1" d="M266.75,234v69.4c0,13.83,3.19,17,16.32,16.29,12.44-.69,14.32-3,14.15-16.55-.1-7.79.14-15.59,0-23.38,0-2.2.69-3,2.56-2.91,1.32.07,2.64.42,4,.53,9.26.78,16.11-.36,16.11-10.07q0-31.38,0-62.77c0-7.54-2.52-9.6-9.64-9.72-11-.19-13.06-2.13-12.87-12.39.12-6.17-.32-12.34.15-18.56.7-9.32-3-13.44-11.72-14.12-4.15-.32-8.56-.61-12.48.53-4.54,1.32-6.63,5.36-6.6,10.69C266.82,185.31,266.75,209.65,266.75,234Z"/><path class="cls-1" d="M95,234.82V162.19c0-9.37-2.43-12.79-11.27-12.38-6.28.29-14.9-2.71-17.76,6.6-1.56,5.08-.78,11-.83,16.53s.17,11.2.32,16.8c.06,2.11-.71,3.16-2.73,2.48-2.9-1-10.13.21-13,.38-6.1.37-8.81,3.43-8.83,10q-.1,32.37,0,64.75c0,6.58,9,10.69,15.12,9.95,8.95-1.09,9.85.08,9.4,9.52-.38,7.79-.23,15.63,0,23.44.2,5.63,3.28,8.77,8.75,9.12a63.85,63.85,0,0,0,12.52.08c6.44-.83,8.21-2.56,8.22-9.64Q95,272.35,95,234.82Z"/><path class="cls-1" d="M167.13,222.3c-19.62,0-39.25.25-58.86-.15-6.25-.13-7.66,1.81-7.44,7.24.42,10.71.28,21.45,0,32.16-.09,4.09.75,5.88,5.77,5.86,40.77-.18,109.38-.16,150.14,0,4.52,0,5.52-1.5,5.44-5.39-.24-11.43-.33-22.88,0-34.3.15-4.62-1.65-5.53-6.13-5.49C235.74,222.4,187.51,222.3,167.13,222.3Z"/><path class="cls-1" d="M33.83,224.51a90,90,0,0,1,.08-9.72c.32-2.9-3.48-3.3-9.75-2.64-10.88,1.14-16.51,4.23-16.23,9.06.15,2.57.57,5.11,0,7.7-.89,3.8,7.27,7.59,16.67,8.33,5.5.43,9.58.07,9.34-2.63C33.6,231.25,33.83,227.87,33.83,224.51Z"/><path class="cls-1" d="M326.09,224.51a90,90,0,0,0-.08-9.72c-.31-2.9,3.43-3.3,9.61-2.64,10.72,1.14,16.27,4.23,16,9.06-.14,2.57-.56,5.11,0,7.7.87,3.8-7.16,7.59-16.43,8.33-5.42.43-9.44.07-9.2-2.63C326.32,231.25,326.09,227.87,326.09,224.51Z"/><path class="cls-1" d="M138.41,145.22c-.09-.23-.19-.47-.3-.7a62.52,62.52,0,0,0-19-23.41,67.23,67.23,0,0,0-7.92-5.11,1.08,1.08,0,0,0-1.44.09,2.75,2.75,0,0,1-.28.19A50.84,50.84,0,0,1,73.44,124a50,50,0,0,1-20.13-7.77c-1-.67-.67-.71-1.86,0a62.59,62.59,0,0,0-31.27,42.31c-.86,4.17-1.13,8.41-1.67,12.62-.34,2.64-.62,5.29-.93,7.93-.37,3.18-.75,6.36-1.12,9.54l-1.08,9.28c-.12,1-.23,1.92-.34,2.87a26.5,26.5,0,0,1,3.22-.82c4.61-.87,11,1.25,13,1.61l2.33.4c0-8.74,0-4.14.06-12.88,0-5.64,3.61-8.25,11.72-8.56,3.75-.15,7.45-1.15,11.31-.32,2.67.57,3.7-.33,3.62-2.13-.21-4.77-.49-9.54-.42-14.31s-1-9.77,1.09-14.1c3.8-7.94,15.23-5.38,23.57-5.63,11.74-.35,15,2.56,15,10.56V218c3-.11,6-.32,9-.49.5,0,1-.11,1.49-.17.06-.25.11-.45.14-.64L111,209c.31-2.68.63-5.35.94-8s.65-5.23.91-7.85a78.28,78.28,0,0,1,1.19-8.06,67.38,67.38,0,0,1,19.32-35.12c1.61-1.56,3.33-3,5.05-4.53A.88.88,0,0,0,138.41,145.22Z"/></svg>