<svg id="Layer_1" data-name="Layer 1" xmlns="http://www.w3.org/2000/svg" viewBox="0 0 360 339.84"><defs><style>.cls-1{fill:#404f5e;}</style></defs><title>CorpServ-Icon</title><path class="cls-1" d="M76.17,330.84c-3.14-.08-6.27-.22-9.41-.23q-19-.08-37.95-.09H26.72c1.31-1.12,2.29-2,3.29-2.82q35.52-29.35,71-58.68c10.51-8.66,21.11-17.21,31.63-25.87,1.13-.93,1.88-1,3-.05,9,7.3,18.11,14.52,27.15,21.8q5.9,4.75,11.65,9.68a2,2,0,0,0,2.85.15c3.94-3.05,7.94-6,11.8-9.2,9.69-7.94,19.32-16,29.17-24.11l107.39,88.73,0,.37h-1.62l-45.44.13a14.63,14.63,0,0,0-1.75.19Z"/><path class="cls-1" d="M337.82,290.11c-.08,2-.21,4-.24,6-.07,6.62-.1,13.24-.15,19.86,0,.8-.1,1.6-.19,2.92-35.74-29-70.84-58.19-106.06-87.95l106-87.59c.1,1.4.2,2.25.21,3.1q.1,11.73.2,23.45c0,.86.12,1.72.19,2.58Z"/><path class="cls-1" d="M66.37,48H68.5q28.75,0,57.51-.05a4.69,4.69,0,0,0,2.75-1Q152.42,27.53,176,8a5,5,0,0,1,.46-.28L191.5,20.15q16.31,13.49,32.62,27a4,4,0,0,0,2.37.73q28.92.1,57.83.12h2.32v2c0,15.69,0,31.38,0,47.08a3.3,3.3,0,0,0,1.32,2.88q15.93,13.18,31.79,26.46c2.1,1.76,4,3.72,6.31,5.83l-58.71,48.6V67H85.81V180.4l-.55.28-59-48.84,8.76-7.26Q50.23,112,65.4,99.47a3.25,3.25,0,0,0,.87-2.22q.11-23.55.1-47.08Z"/><path class="cls-1" d="M121.8,231.09,19.58,315.9l-.65-.3c-.64-56.33-.55-112.67-.12-169l.48-.33Z"/><path class="cls-1" d="M184.29,175.51c-1.27,1-2.4,1.75-3.45,2.64-3.7,3.14-7.77,5.57-12.61,6.37-10.22,1.69-19.5-2.87-24.61-12A37.73,37.73,0,0,1,139.19,152,46.46,46.46,0,0,1,156,117.66c6.21-5.33,13.59-8,22-7.09,5.12.56,9.27,3.12,13,6.53,1.26,1.17,2.49,2.38,3.88,3.72.56-2.19,1.09-4.14,1.55-6.12a1.71,1.71,0,0,1,2.35-1.5l9.78,2.34c1,.25,1.29.74,1.05,1.88q-5.1,24.15-10.07,48.32a10.5,10.5,0,0,1-.2,1.12c-1.27,3.94,1.29,5.78,5.39,4.73a23.29,23.29,0,0,0,9.86-5.8,39.69,39.69,0,0,0,13.14-26.44c1.65-18.13-8.16-31.71-22.58-39.34-9.78-5.16-20.24-6-31-5.15a53,53,0,0,0-24,7.81c-12.18,7.59-19.65,18.64-23,32.42-2.74,11.16-3.24,22.49.13,33.6,4.35,14.32,14,23.75,28,28.87,7.23,2.66,14.77,3.81,22.38,4.57,1,.1,2,.23,3.13.36v11.44c-4.25-.36-8.41-.59-12.54-1.07a69.82,69.82,0,0,1-25.34-7.65c-16-8.61-25.44-22.05-28.52-39.74-3.33-19.16,0-37.26,10.55-53.76,9.71-15.17,23.6-24.42,41.29-27.73,7.39-1.38,14.92-.83,22.41-.51a53.39,53.39,0,0,1,24.29,6.92c13.45,7.56,21.8,19,25.7,33.86a14.1,14.1,0,0,1,.47,3.54c0,6,0,12-.32,18.06a27.57,27.57,0,0,1-1.9,7.17c-3.93,11.38-11.66,19.89-21.23,26.69a28.54,28.54,0,0,1-22.43,4.86,10,10,0,0,1-8.37-8A6.58,6.58,0,0,0,184.29,175.51Zm-31-22.4c-.07,7.09,1.05,11.21,3.67,14.77s6.15,5.59,10.73,5.24a18.8,18.8,0,0,0,10-4.28c10.86-8.33,14.76-24.66,11.5-36.42A14.07,14.07,0,0,0,173,122.35a17.24,17.24,0,0,0-9.72,5.83A40.06,40.06,0,0,0,153.28,153.11Z"/></svg>