<svg id="Layer_1" data-name="Layer 1" xmlns="http://www.w3.org/2000/svg" viewBox="0 0 360 339.84"><defs><style>.cls-1{fill:#404f5e;}</style></defs><title>CorpServ-Icon</title><path class="cls-1" d="M271.72,181.67a69.92,69.92,0,1,0,69.92,69.93A69.94,69.94,0,0,0,271.72,181.67Zm4.49,121.62v-6a4.5,4.5,0,1,0-9,0v6a52,52,0,0,1-47.2-47.2h6.06a4.5,4.5,0,1,0,0-9H220a52,52,0,0,1,47.2-47.19v6a4.5,4.5,0,1,0,9,0v-6A51.92,51.92,0,0,1,323.4,247.1h-6a4.5,4.5,0,1,0,0,9h6A51.92,51.92,0,0,1,276.21,303.29Z"/><path class="cls-1" d="M297.78,244.84H281.55a12,12,0,0,0-9.83-5.19l-.2,0-14.78-20.81a6.75,6.75,0,1,0-11,7.84l14.79,20.82a12.26,12.26,0,0,0-.74,4.09,11.93,11.93,0,0,0,21.76,6.74h16.23a6.76,6.76,0,0,0,0-13.51Z"/><path class="cls-1" d="M85.25,112.42a22.13,22.13,0,0,0,22.14-22.13v-48a22.13,22.13,0,1,0-44.26,0v48A22.12,22.12,0,0,0,85.25,112.42Z"/><path class="cls-1" d="M220.83,112.42A22.13,22.13,0,0,0,243,90.29v-48a22.14,22.14,0,1,0-44.27,0v48A22.13,22.13,0,0,0,220.83,112.42Z"/><path class="cls-1" d="M115.25,173.88a11.43,11.43,0,0,0-11.44-11.44H82.59a11.45,11.45,0,0,0-11.45,11.44v21.2a11.46,11.46,0,0,0,11.45,11.46h21.22a11.45,11.45,0,0,0,11.44-11.46Z"/><path class="cls-1" d="M175.1,173.89a11.42,11.42,0,0,0-11.42-11.43H142.45A11.43,11.43,0,0,0,131,173.89V195.1a11.44,11.44,0,0,0,11.43,11.44h21.23A11.43,11.43,0,0,0,175.1,195.1Z"/><path class="cls-1" d="M202.3,162.44a11.44,11.44,0,0,0-11.45,11.44v21.2a11.29,11.29,0,0,0,9.74,11.1,85,85,0,0,1,34.34-30.49v-1.81a11.43,11.43,0,0,0-11.44-11.44Z"/><path class="cls-1" d="M82.6,219.91a11.45,11.45,0,0,0-11.45,11.44v21.21A11.44,11.44,0,0,0,82.6,264h21.22a11.42,11.42,0,0,0,11.43-11.43V231.35a11.43,11.43,0,0,0-11.43-11.44Z"/><path class="cls-1" d="M163.65,219.92h-21.2A11.44,11.44,0,0,0,131,231.37v21.19A11.42,11.42,0,0,0,142.45,264h21.2a11.44,11.44,0,0,0,11.44-11.43V231.37A11.45,11.45,0,0,0,163.65,219.92Z"/><path class="cls-1" d="M194.57,285.9H87a33.63,33.63,0,0,1-33.59-33.58V139.92H252.74v29.41a84.76,84.76,0,0,1,19-2.22,83.89,83.89,0,0,1,16.42,1.63V63H256.25V90.29a35.42,35.42,0,0,1-70.83,0V63H120.67V90.29a35.42,35.42,0,0,1-70.83,0V63H18V252.32a69,69,0,0,0,69,69H219.13c1.56,0,3.11-.13,4.65-.23A85.07,85.07,0,0,1,194.57,285.9Z"/></svg>