<svg id="Layer_1" data-name="Layer 1" xmlns="http://www.w3.org/2000/svg" viewBox="0 0 360 339.84"><defs><style>.cls-1{fill:#404f5e;}</style></defs><title>CorpServ-Icon</title><path class="cls-1" d="M228.9,108.8c7.37-1.73,14.35-3.9,21.5-4.94,21.51-3.11,41.78.89,60.37,12.23,22.5,13.72,36.47,33.67,42,59.39,4.55,21.27,1.44,41.65-8,61.17a5.74,5.74,0,0,0-.38,3.69c2.22,7.86,4.69,15.65,6.92,23.5,1.79,6.3-.93,12.06-6.87,14a16.69,16.69,0,0,1-7.58.23c-7.61-1.27-15.15-2.94-22.74-4.31a5.25,5.25,0,0,0-3.47.68A91.56,91.56,0,0,1,267.94,289c-24,2-45.72-4.36-64.78-19.3-.28-.22-.55-.45-.84-.66l-1.68-1.25c-7.68,4.24-15,8.63-22.59,12.38-13.39,6.59-27.71,9.73-42.59,10.58a115.71,115.71,0,0,1-50.87-8.28c-8.09-3.3-15.59-8-23.4-12a5.83,5.83,0,0,0-3.39-.6c-11.69,2.12-23.34,4.53-35,6.5-8.54,1.44-14.85-5.93-12.49-14.35,2-7.1,4.22-14.13,6.35-21.19,1.3-4.33,2.65-8.64,3.87-13a3.63,3.63,0,0,0-.18-2.48,115.51,115.51,0,0,1-12.63-38,121.94,121.94,0,0,1,7.08-63.85,116.38,116.38,0,0,1,90.43-72.35c26.89-4.22,52.41.29,76.39,13A122.82,122.82,0,0,1,228.9,108.8ZM37,250.86c7.58-1.46,14.55-2.73,21.49-4.18,3.95-.83,7.53-.44,10.85,2,2.5,1.85,5.06,3.62,7.73,5.21,17.82,10.57,37,15.58,57.8,14.35A94.62,94.62,0,0,0,177,255.57c2.67-1.53,5.18-3.35,7.91-5.13-14.5-21.63-19.5-45.08-14.66-70.33s18.3-45.08,39.13-60.18c-2.39-3.41-4.4-6.67-6.79-9.62A101.85,101.85,0,0,0,163,80.07a96.57,96.57,0,0,0-53.4-7c-20.91,3.19-39.12,12.24-53.86,27.46-16.41,16.94-25.38,37.36-27,61a97,97,0,0,0,12.48,55c3,5.3,3.44,10.12,1.43,15.71C40.53,238.19,39,244.29,37,250.86Zm287.61,2c-1.29-4.38-2.43-8.19-3.53-12a11.52,11.52,0,0,1,.85-9.29c6.71-11.62,10.4-24,10.24-37.55-.22-18.44-6.35-34.58-19.18-47.75-16.06-16.48-36-23.24-58.69-20.33a69.55,69.55,0,0,0-46.4,25.72c-14,17.13-19.35,36.7-15.65,58.54A65.52,65.52,0,0,0,219.6,254c17.6,12.55,37.19,15.7,58.09,10.57a67.35,67.35,0,0,0,24.21-11.36,13.34,13.34,0,0,1,12.27-2.42C317.39,251.69,320.73,252.12,324.58,252.87Z"/><path class="cls-1" d="M120.56,126.72c-7.83-.78-11.9,5-14.91,12.13-2,4.74-4.76,8.92-10,10.39-5.7,1.61-11.33.95-15.61-3.45-4.57-4.7-4.52-10.61-2.73-16.51,3.46-11.42,11.41-19,21.92-23.72,17.59-7.84,35.13-6.28,51.78,2.74,17.07,9.26,21.46,30,13.76,45.22a38.67,38.67,0,0,1-11,12.92q-5.57,4.35-11.33,8.43c-4.37,3.1-7.76,6.71-9.48,12.07-3,9.37-10,11.28-19,9.08-4.41-1.08-8.43-6.63-8.93-11.35-.92-8.71,2.53-15.67,8.79-21.29,5.14-4.62,10.68-8.8,16-13.28,2.89-2.46,5.18-5.42,5.72-9.34C136.81,131.86,131.45,126.45,120.56,126.72Z"/><path class="cls-1" d="M119.52,237.36a17.32,17.32,0,0,1-17.11-17.16c0-9.61,8-17.68,17.37-17.57s17.42,8.21,17.37,17.42A17.56,17.56,0,0,1,119.52,237.36Z"/><path class="cls-1" d="M250.79,196.39a10.73,10.73,0,0,1,10.52-10.55,10.84,10.84,0,0,1,10.9,10.49,11.07,11.07,0,0,1-10.84,10.91A11,11,0,0,1,250.79,196.39Z"/><path class="cls-1" d="M221.47,196.39a10.68,10.68,0,0,1,21.35.21,10.68,10.68,0,1,1-21.35-.21Z"/><path class="cls-1" d="M280.21,196.55A10.52,10.52,0,0,1,291,185.84a10.91,10.91,0,0,1,10.52,10.6c0,5.68-5.11,10.88-10.67,10.8A10.76,10.76,0,0,1,280.21,196.55Z"/></svg>