<svg id="Layer_1" data-name="Layer 1" xmlns="http://www.w3.org/2000/svg" viewBox="0 0 360 339.84"><defs><style>.cls-1{fill:#404f5e;}</style></defs><title>CorpServ-Icon</title><path class="cls-1" d="M185,259.26q-65.2,0-130.39-.06a14,14,0,0,1-5.84-1.52c-10.55-5.15-16.53-13.41-16.55-25.42Q32.1,156.69,32,81.13c0-6.25.1-12.5.22-18.75A26.5,26.5,0,0,1,50.64,37.74a31.28,31.28,0,0,1,8.72-.93q45.78-.29,91.56-.4,57.48-.06,115,.1c17.36,0,34.71,0,52.07.15,4.12,0,7.65,2.1,10.81,4.51,7.1,5.4,11.31,12.5,11.36,21.63.22,34,.48,68,.51,101.92,0,22.88-.24,45.75-.48,68.62a26.17,26.17,0,0,1-18,24.67,25.2,25.2,0,0,1-7.58,1.1q-42,.31-84.06.45c-15.15.05-30.3,0-45.45,0Zm1.13-22.65v0q56.7,0,113.39,0c4.55,0,9.12-.1,13.66-.43,3.84-.28,4.07-1.19,4.07-4.27q-.08-84,0-168.1c0-3.31-.57-3.92-3.94-4.1-3-.16-6-.37-9-.39-22.58-.13-45.15-.3-67.73-.32q-69.92,0-139.85.08c-12.65,0-25.29.38-37.93.65-2.89.06-3.58.94-3.58,3.76q0,84.27-.06,168.54c0,3.48,1.25,4,4,4.16,3.67.26,7.35.39,11,.4Q128.12,236.63,186.14,236.61Z"/><path class="cls-1" d="M355.55,270.63c-.26,6.84-.2,13.54-.87,20.16-.56,5.45-4.29,9-9,11.52a7.27,7.27,0,0,1-3.21.52c-22.21.2-44.41.48-66.62.53q-73.46.19-146.92.17c-37.57-.06-75.14-.41-112.72-.69-6.5,0-12.69-5.47-13.32-12S2.29,277.47,2,270.63ZM178.71,292.51h0c12.06,0,24.11,0,36.17,0a3.46,3.46,0,0,0,2.32-.8c1.48-1.65,2.84-3.46,1.8-5.94s-2.85-3.63-5.83-3.63c-23,0-46,.05-69-.07a5.63,5.63,0,0,0-5.28,3.15c-1.79,2.94.69,7.3,4.13,7.3Q160.84,292.53,178.71,292.51Z"/><path class="cls-1" d="M148.72,107.61c-3.75,3.14-7.11,6-10.46,8.79a4.87,4.87,0,0,0-.82.75c-3.28,4.51-7.65,5.66-13.16,5.42-10.12-.45-20.27-.13-30.79-.13v53.62h53.42c0-4.82.24-9.52-.07-14.18a14.87,14.87,0,0,1,3.48-11.13c3.74-4.5,7.23-9.2,10.83-13.82l.64.32a12.46,12.46,0,0,1,.19,1.6q0,20.4-.07,40.81a40.41,40.41,0,0,1-.24,4.4c-.53,4.9-2.07,6.53-7,6.73-7.71.3-15.43.49-23.15.52-15.59.08-31.18,0-46.77,0a6.91,6.91,0,0,1-6.52-6.47q-.09-32.32-.14-64.64a60.81,60.81,0,0,1,.46-6.6c.43-3.89,2-5.48,6-5.74,4.54-.29,9.11-.46,13.66-.47,16,0,31.92,0,47.88,0C146.78,107.45,147.5,107.53,148.72,107.61Z"/><path class="cls-1" d="M242.68,135.72c-14.92,0-29.84,0-44.75,0-4.36,0-6.75-2.52-6.9-6.83a6.82,6.82,0,0,1,6.46-7.28c3.51-.31,7-.44,10.57-.44q34.83,0,69.68,0c3.74,0,7.47.56,11.21.66,4.64.12,6.92,7.51,4.3,10.7-1.89,2.3-3.77,3.76-7.13,3.7-14.48-.23-29-.09-43.44-.09Z"/><path class="cls-1" d="M125.87,144.27c2.93-3.75,5.47-7.26,8.28-10.55,10.11-11.85,22.11-21.24,36.5-27.39a21.83,21.83,0,0,1,5.46-1.56,2.93,2.93,0,0,1,2.43,1.29,3.37,3.37,0,0,1-.2,3,24.48,24.48,0,0,1-4.18,3.88c-14.4,11.21-26.78,24.22-36.07,40a55.21,55.21,0,0,1-5.28,7.58c-2.95,3.49-6.84,3.68-9.93.33-5.13-5.56-10-11.32-14.93-17.1a5.48,5.48,0,0,1,.42-7.27c1.82-1.93,4.33-2.21,6.78-.47,2.21,1.57,4.24,3.4,6.38,5.07C122.91,142.15,124.34,143.15,125.87,144.27Z"/><path class="cls-1" d="M226.31,170H197.66c-2.93,0-6.51-3.82-6.63-7-.14-3.91,2.4-7.48,5.8-7.58q14-.4,28-.47c9.77,0,19.55,0,29.31.2,5.19.11,8.22,3.61,7.68,8.37a7.52,7.52,0,0,1-7.27,6.52Z"/></svg>