<svg id="Layer_1" data-name="Layer 1" xmlns="http://www.w3.org/2000/svg" viewBox="0 0 360 339.84"><defs><style>.cls-1{fill:#404f5e;}.cls-2{fill:#fff;}</style></defs><title>Mandate-Icons</title><circle class="cls-1" cx="177.69" cy="171.11" r="157.24"/><path class="cls-2" d="M91.35,203c-1.57.27-3.38.07-4.38.87-1.64,1.32-3.93,3.42-3.78,5,.19,1.89,2.37,3.94,4.2,5.17,1.19.8,3.28.33,5,.33,18.6,0,37.21.05,55.82,0,6.21,0,12.91,1.61,17.4-5,0,7,.21,13.41-.14,19.76a7.32,7.32,0,0,1-3,5c-7.6,4.73-12.54,11.25-14.31,20-.55,2.75-1.83,3.64-4.46,3.56-4.39-.12-8.79,0-13.19,0-3.64,0-6.61,1.07-6.53,5.25s2.64,5.92,6.7,5.89c7.1-.05,14.21,0,21.31,0l72.06,0c3.77,0,7-1,7.1-5.35.08-4.64-3.21-5.83-7.21-5.81-4.23,0-8.47-.15-12.69,0-2.7.09-3.81-.86-4.32-3.61-1.64-8.84-6.63-15.36-14.55-19.65-1-.53-2.54-1.32-2.6-2.09-.55-7.41-.83-14.84-1.19-22.26l1.27-.71c3,5.81,8,5.64,13.26,5.61,20-.13,39.92-.05,59.88-.05,1.52,0,3.52.54,4.46-.22,1.86-1.49,4.18-3.65,4.32-5.67.11-1.54-2.64-3.57-4.49-4.87-1-.72-2.8-.37-4.17-.49,0-5.29,2.25-7.21,7.26-6.9,6.4.4,12.85.12,19.27.09,9.57,0,7.79,1,10.24-8,1.5-5.52.85-6.31-4.68-6.31q-41.37,0-82.72,0c-5.84,0-6.1.42-4.48,6.2a20.46,20.46,0,0,1,.84,2.91c.46,4,2.71,5.19,6.61,5.05,7.6-.26,15.24.25,22.83-.17,5.11-.28,6.27,2.26,6.65,7.05-12.34,0-24.33-.4-36.28.15-6.74.32-11.29-1.79-15.64-6.89a21.5,21.5,0,0,1-5.62-14.44c-.61-22-1.83-43.93-2.53-65.9a12.9,12.9,0,0,1,2.65-7.48c3.68-4.9,4.9-11.8.48-15.77-4.69-4.21-4.46-9-4.68-14.12-.09-2.19.08-4.64-.85-6.48s-3.23-4.43-4.69-4.28a7.43,7.43,0,0,0-5.16,4.33c-1,3.29-1,7-1,10.53s-.76,6.29-3.58,8.9c-4.95,4.6-5.22,11.28-.56,16.36,2.62,2.86,3,5.63,2.86,9.13-1.06,22.8-1.88,45.62-3.05,68.42-.14,2.57-1.68,5.24-3.1,7.55-4.76,7.76-11.55,10.52-20.82,9.65-9.56-.91-19.27-.19-28.91-.21-1.46,0-2.91-.15-4.33-.22-.21-5.39,2.18-7,7.11-6.8,7.6.36,15.23-.05,22.83.15,3.32.09,5-1.18,5.67-4.32a34.23,34.23,0,0,1,1.31-4.89c1.3-3.6,0-5.05-3.69-5.05q-42.63,0-85.25.06c-1.25,0-3.59.81-3.57,1.12a56.57,56.57,0,0,0,1.53,11.19c.3,1.09,2.79,2.21,4.31,2.25,8.28.22,16.59.38,24.86,0C90.15,196.21,91.32,198.54,91.35,203Z"/><path class="cls-2" d="M291.89,128.19a36.27,36.27,0,0,0-36.44-36.73c-17-.09-36.67,12.29-36.6,36.74.06,22.66,18,36.41,36.92,36.57C275.75,164.93,291.87,148.46,291.89,128.19Z"/><path class="cls-2" d="M137.32,113.33l-.61-1.29a8.84,8.84,0,0,0-2.38-.22c-11.43,2.08-22.92,3.93-34.26,6.46-5.78,1.29-8.54,8.47-6.17,13.93,2.45,5.63,9.39,8.37,14.39,4.64C118.27,129.4,127.68,121.21,137.32,113.33Z"/><path class="cls-2" d="M130.08,107l.66-1.81c-9.67-14.78-32.25-18.28-48.81-7.72-14.74,9.4-21.75,32.4-12.58,46.76,3.05-.29,3.77-1.47,2.74-4.65-1.22-3.8-2.35-7.94-2.09-11.84.86-13.39,7.25-23.62,19.91-28.67,12.24-4.89,23.78-2.83,34.13,5.64C125.62,106,128.05,106.26,130.08,107Z"/><path class="cls-2" d="M138.35,120.45c-1.79,1.9-4.19,3.41-4.2,4.72-.05,5.88-.53,7.76-.61,11.91,0,.72,1.4,1.81,2.35,2.09a2.69,2.69,0,0,0,2.33-1.21A28.19,28.19,0,0,0,138.35,120.45Z"/><path class="cls-2" d="M136.31,150.11c-3.17-2.15-5.19-4.59-6.95-4.42s-4.46,2.8-4.68,4.61c-.36,2.93,2.12,5.17,5.29,4.4C131.85,154.24,133.37,152.32,136.31,150.11Z"/><path class="cls-2" d="M112.88,157c-1.58,2.28-3.17,3.59-3.17,4.9,0,1,2.18,3,3.09,2.79a5,5,0,0,0,3.26-3.17C116.29,160.6,114.53,159.21,112.88,157Z"/><path class="cls-2" d="M93.24,157.55c-1.28,2.11-2.59,3.31-2.51,4.42s1.64,1.9,2.56,2.85c.89-1,2.41-1.92,2.5-3S94.53,159.6,93.24,157.55Z"/><path class="cls-2" d="M291.89,128.19c0,20.27-16.14,36.74-36.12,36.58-19-.16-36.86-13.91-36.92-36.57-.07-24.45,19.61-36.83,36.6-36.74A36.27,36.27,0,0,1,291.89,128.19Z"/><path class="cls-2" d="M137.32,113.33c-9.64,7.88-19,16.07-29,23.52-5,3.73-11.94,1-14.39-4.64-2.37-5.46.39-12.64,6.17-13.93,11.34-2.53,22.83-4.38,34.26-6.46a8.84,8.84,0,0,1,2.38.22Z"/><path class="cls-2" d="M130.08,107c-2-.74-4.46-1-6-2.29-10.35-8.47-21.89-10.53-34.13-5.64-12.66,5.05-19,15.28-19.91,28.67-.26,3.9.87,8,2.09,11.84,1,3.18.31,4.36-2.74,4.65-9.17-14.36-2.16-37.36,12.58-46.76,16.56-10.56,39.14-7.06,48.81,7.72Z"/><path class="cls-2" d="M138.35,120.45c1.88,6.6,1.94,12,.12,17.45a3.19,3.19,0,0,1-2.58,1.27c-.95-.28-2.46-3.76-2.35-4.47.61-4.26.61-5.83,1-10C134.66,123.36,136.56,122.35,138.35,120.45Z"/><path class="cls-2" d="M136.31,150.11c-2.94,2.21-4.46,4.13-6.34,4.59-3.17.77-5.65-1.47-5.29-4.4.22-1.81,2.9-4.43,4.68-4.61S133.14,148,136.31,150.11Z"/><path class="cls-2" d="M112.88,157c1.65,2.23,3.41,3.62,3.18,4.52a5,5,0,0,1-3.26,3.17c-.91.16-3.09-1.78-3.09-2.79C109.71,160.57,111.3,159.26,112.88,157Z"/><path class="cls-2" d="M93.24,157.55c1.29,2,2.63,3.23,2.55,4.29s-1.61,2-2.5,3c-.92-.95-2.49-1.85-2.56-2.85S92,159.66,93.24,157.55Z"/><path class="cls-1" d="M253.26,97.22h5.58v5.15Q268.2,103.5,271,113l-7.69,3.15q-2.24-6.49-7-6.49a5.09,5.09,0,0,0-3.79,1.45,4.85,4.85,0,0,0-1.43,3.52,3.93,3.93,0,0,0,1.38,3.23,24,24,0,0,0,5.91,2.79,54,54,0,0,1,7.8,3.42,12.29,12.29,0,0,1,4.51,4.46,12.88,12.88,0,0,1,1.69,6.66,14.1,14.1,0,0,1-3.48,9.74q-3.48,3.88-10.05,4.58v6.67h-5.58v-6.63q-10.95-1.12-13.57-12.73l8.63-2.25q1.2,7.29,7.95,7.29a6.15,6.15,0,0,0,4.64-1.56,5.27,5.27,0,0,0,1.48-3.77,4.14,4.14,0,0,0-1.48-3.46c-1-.79-3.19-1.78-6.6-3a39.86,39.86,0,0,1-7.2-3.16,12,12,0,0,1-4.21-4.37,12.94,12.94,0,0,1-1.61-6.54,14.52,14.52,0,0,1,2.88-8.82q2.88-3.91,9.09-4.78Z"/><circle class="cls-2" cx="93.05" cy="161.19" r="4.48"/><circle class="cls-2" cx="112.71" cy="161.19" r="4.48"/><ellipse class="cls-1" cx="129.66" cy="150.12" rx="8.02" ry="5.26"/><circle class="cls-2" cx="129.05" cy="152.22" r="4.48"/><rect class="cls-2" x="80.59" y="202.75" width="81.33" height="11.49" rx="5.75"/><rect class="cls-2" x="193.84" y="203.75" width="78.05" height="11.49" rx="5.75"/><polygon class="cls-2" points="130.74 112.47 141.88 110.31 133.98 116.08 130.74 112.47"/><path class="cls-2" d="M67.77,141.35c1.25,3.25,2.43,5.06,4.26,4.46s1.25-2.35.3-5.39C72.06,139.54,67.77,141.35,67.77,141.35Z"/><path class="cls-2" d="M133.56,134.35c-.35,4.51-.3,5.55,2.14,5.78,2,.18,2.86-1.33,3.2-4.5C139,134.72,133.56,134.35,133.56,134.35Z"/><path class="cls-2" d="M139.67,127.88c-.33-6-1.12-8.95-3.49-8.58-3.38.53-2.24,6-2.16,9.18S139.67,127.88,139.67,127.88Z"/><path class="cls-2" d="M122.53,103.53c3,2.52,6.67,7.41,8.86,4.57,2-2.62-4.42-7.51-5-7.86C123.78,98.51,122.53,103.53,122.53,103.53Z"/><path class="cls-2" d="M295.19,182.46q-41.37,0-82.72,0c-5.84,0-6.1.42-4.48,6.2a20.46,20.46,0,0,1,.84,2.91c.46,4,2.71,5.19,6.61,5.05,7.6-.26,15.24.25,22.83-.17,5.11-.28,6.27,2.26,6.65,7.05-12.34,0-24.33-.4-36.28.15-6.74.32-11.29-1.79-15.64-6.89a21.5,21.5,0,0,1-5.62-14.44c-.61-22-1.83-43.93-2.53-65.9a12.9,12.9,0,0,1,2.65-7.48c3.68-4.9,4.9-11.8.48-15.77-4.69-4.21-4.46-9-4.68-14.12-.05-1.21,0-2.49-.15-3.71V74.22a5.92,5.92,0,0,0-4.55-5.77,1.65,1.65,0,0,0-.84-.16h-.08l-.46,0a5.93,5.93,0,0,0-5.93,5.94V86.5A10.2,10.2,0,0,1,168,92.05c-4.95,4.6-5.22,11.28-.56,16.36,2.62,2.86,3,5.63,2.86,9.13-1.06,22.8-1.88,45.62-3.05,68.42-.14,2.57-1.68,5.24-3.1,7.55-4.76,7.76-11.55,10.52-20.82,9.65-9.56-.91-19.27-.19-28.91-.21-1.46,0-2.91-.15-4.33-.22-.21-5.39,2.18-7,7.11-6.8,7.6.36,15.23-.05,22.83.15,3.32.09,5-1.18,5.67-4.32a34.23,34.23,0,0,1,1.31-4.89c1.3-3.6,0-5.05-3.69-5.05q-42.63,0-85.25.06c-1.25,0-3.59.81-3.57,1.12a56.57,56.57,0,0,0,1.53,11.19c.3,1.09,2.79,2.21,4.31,2.25,8.28.22,16.59.38,24.86,0,4.92-.23,6.09,2.1,6.12,6.51-1.57.27-3.38.07-4.38.87-1.64,1.32-3.93,3.42-3.78,5,.19,1.89,2.37,3.94,4.2,5.17,1.19.8,3.28.33,5,.33,18.6,0,37.21.05,55.82,0,6.21,0,12.91,1.61,17.4-5,0,7,.21,13.41-.14,19.76a7.32,7.32,0,0,1-3,5c-7.6,4.73-12.54,11.25-14.31,20-.55,2.75-1.83,3.64-4.46,3.56-4.39-.12-8.79,0-13.19,0-3.64,0-6.61,1.07-6.53,5.25s2.64,5.92,6.7,5.89c7.1-.05,14.21,0,21.31,0l72.06,0c3.77,0,7-1,7.1-5.35.08-4.64-3.21-5.83-7.21-5.81-4.23,0-8.47-.15-12.69,0-2.7.09-3.81-.86-4.32-3.61-1.64-8.84-6.63-15.36-14.55-19.65-1-.53-2.54-1.32-2.6-2.09-.55-7.41-.83-14.84-1.19-22.26l1.27-.71c3,5.81,8,5.64,13.26,5.61,20-.13,39.92-.05,59.88-.05,1.52,0,3.52.54,4.46-.22,1.86-1.49,4.18-3.65,4.32-5.67.11-1.54-2.64-3.57-4.49-4.87-1-.72-2.8-.37-4.17-.49,0-5.29,2.25-7.21,7.26-6.9,6.4.4,12.85.12,19.27.09,9.57,0,7.79,1,10.24-8C301.37,183.25,300.72,182.46,295.19,182.46Z"/></svg>