<svg id="Layer_1" data-name="Layer 1" xmlns="http://www.w3.org/2000/svg" viewBox="0 0 360 339.84"><defs><style>.cls-1{fill:#404f5e;}</style></defs><title>Mandate-Icons</title><path class="cls-1" d="M180,16.15A158.09,158.09,0,1,0,338.09,174.24,158.09,158.09,0,0,0,180,16.15Zm79.91,64.4A36.54,36.54,0,1,1,223,117.09,36.53,36.53,0,0,1,259.91,80.55ZM180.34,102.8a36.54,36.54,0,1,1-36.66,36.53A36.47,36.47,0,0,1,180.34,102.8ZM66.62,104.43q.31-.84.66-1.65c.46-1.09,1-2.15,1.54-3.18A36.93,36.93,0,0,1,80.54,86.77c.48-.33,1-.65,1.48-1a36.33,36.33,0,0,1,18.91-5.28h0a36.87,36.87,0,0,1,10.94,1.68,36.55,36.55,0,0,1,15,9.12c.83.83,1.61,1.7,2.35,2.6a36.5,36.5,0,0,1,8.28,23.12,37.13,37.13,0,0,1-.41,5.51,36.56,36.56,0,0,1-6.78,16.28c-.35.47-.71.93-1.09,1.39A36.33,36.33,0,0,1,110,152.49a37.12,37.12,0,0,1-20.23-.58q-1.73-.56-3.36-1.26a36.53,36.53,0,0,1-16.89-14.86q-.45-.75-.87-1.53a36.64,36.64,0,0,1-4.29-17.36A36.09,36.09,0,0,1,66.62,104.43Zm58.48,115.9-.87,7.48c-.14,1.26-.28,2.51-.43,3.77,0,.2-.09.39-.14.62-.76.06-1.5.14-2.24.17-4.25.2-8.5.41-12.74.55-2.81.09-5.61.12-8.42.09-4,0-8.05-.09-12.07-.24-3.82-.15-7.63-.39-11.44-.67-4.65-.35-9.28-.86-13.88-1.61a63.36,63.36,0,0,1-10.62-2.44c-1-.33-1.88-.77-2.8-1.19a6.9,6.9,0,0,1-1.09-.69,2.39,2.39,0,0,1-1-2.52c.32-2.12.52-4.26.77-6.39.3-2.52.59-5,.89-7.54.25-2.12.49-4.23.74-6.34q.45-3.8.89-7.61c.24-2.06.48-4.13.71-6.19a48.58,48.58,0,0,1,4.25-15.28A49.77,49.77,0,0,1,77.2,151.25l.42-.21.13,0a41.14,41.14,0,0,0,46.34,0,50,50,0,0,1,22.36,23.75l-.58.49a53.82,53.82,0,0,0-18.93,31.13,61.89,61.89,0,0,0-1,6.51C125.72,215.35,125.4,217.84,125.1,220.33ZM233.33,247.9a7.92,7.92,0,0,1-1.5,1.14,20.54,20.54,0,0,1-4.67,1.81,67.75,67.75,0,0,1-9,1.9q-4.64.67-9.28,1.19c-2.49.27-5,.48-7.5.61-4.59.25-9.17.53-13.76.62-5.22.1-10.45.08-15.67,0-4-.08-8.05-.27-12.07-.54s-7.84-.63-11.75-1.07a96.64,96.64,0,0,1-13.81-2.42,25.41,25.41,0,0,1-4.8-1.64,12.78,12.78,0,0,1-1.92-1.14,2.25,2.25,0,0,1-1-2.35c.4-2.86.68-5.74,1-8.62l.9-7.54c.29-2.51.57-5,.87-7.54s.59-5,.89-7.48c.19-1.59.34-3.19.57-4.78a48.21,48.21,0,0,1,5.58-16.61,49.7,49.7,0,0,1,19.91-19.84l.69-.37a41,41,0,0,0,46.34,0A50,50,0,0,1,229,206.74a56.7,56.7,0,0,1,1,6.63c.21,2.11.48,4.22.73,6.33l.75,6.4.9,7.61c.24,2.09.49,4.18.73,6.26s.46,4.18.74,6.27A1.78,1.78,0,0,1,233.33,247.9Zm77.51-21a23.8,23.8,0,0,1-5.28,1.9,79.17,79.17,0,0,1-10,1.93c-3.39.43-6.77.85-10.17,1.17-2.88.27-5.77.43-8.66.6-5.06.3-10.13.46-15.19.43s-9.91-.09-14.86-.22c-3.14-.08-6.28-.33-9.42-.51-.15,0-.3,0-.48-.07a4.48,4.48,0,0,1-.12-.46c-.29-2.47-.57-4.94-.86-7.41-.34-2.9-.69-5.79-1-8.69-.2-1.66-.37-3.32-.57-5a53.23,53.23,0,0,0-4.14-15.11,53.86,53.86,0,0,0-15.49-20.31l-.6-.5A50.3,50.3,0,0,1,236.35,151a41.08,41.08,0,0,0,46.36,0l.72.38q19.6,11.1,24.85,33a48.08,48.08,0,0,1,1,6.56c.21,2.07.48,4.13.72,6.2s.51,4.31.76,6.46c.3,2.51.6,5,.89,7.54.25,2.11.49,4.22.74,6.33s.49,4.32.78,6.47a1.94,1.94,0,0,1-.62,1.84A10.06,10.06,0,0,1,310.84,227Z"/></svg>