<svg id="Layer_1" data-name="Layer 1" xmlns="http://www.w3.org/2000/svg" viewBox="0 0 360 339.84"><defs><style>.cls-1{fill:#fff;}.cls-2{fill:#404f5e;}.cls-3{fill:none;stroke:#404f5e;stroke-miterlimit:10;stroke-width:23px;}</style></defs><title>Mandate-Icons</title><path class="cls-1" d="M179,250.52a15.77,15.77,0,0,1,1.47,1c6.78,5.88,14.95,8.17,23.63,8.81,7.21.53,14-1.47,20.58-4.27,13.3-5.68,24.08-14.77,33.53-25.5a153.78,153.78,0,0,0,30.42-52.42c2.66-7.77,4.29-15.9,6.29-23.9.55-2.18-.64-3.12-2.76-2.29s-4,1.72-5.89,2.68c-9.85,4.91-20.08,8.74-31,10.39-9.92,1.51-19.93,2.4-29.83,4-13.33,2.16-26,6.43-37.46,13.76-9.82,6.27-17.52,14.32-19.82,26.12a109.77,109.77,0,0,0-1.67,18.4,16.25,16.25,0,0,0,6.89,14.31,2.41,2.41,0,0,1,.35,2.15c-.64,1.74-1.63,3.35-2.32,5.07-4.87,12.05-4.69,24.52-3,37.13C169.48,273.47,172.6,261.59,179,250.52Z"/><path class="cls-1" d="M221.35,163a4.33,4.33,0,0,0-.27-.84c-.31-.51-.64-1-1-1.49a37,37,0,0,0-17.54-13.33c-5.46-1.94-11-3.67-16.58-5.27-1.8-.52-2.27-1.26-2.25-3,.08-11.26,0-22.52,0-33.77v-2.52c1.12.36,2,.55,2.77.89a20.83,20.83,0,0,1,12.6,14.42c1.19,4.35,3.25,8.06,7.92,9.49,9.28,2.84,17.53-5,14.88-14.57-3.44-12.42-11.31-21.2-23.61-25.45-4.59-1.58-9.5-2.24-14.55-3.39V82.24c0-3.73,0-7.46,0-11.18a5.57,5.57,0,0,0-11.13,0c-.07,2.53,0,5.07,0,7.61,0,2,0,4,0,5.94-2.48.38-4.62.66-6.74,1.07-8,1.54-15.55,4.26-21.66,9.89-8.63,8-11.44,18.14-11,29.56.55,13.83,7.05,23.83,19.44,29.72,5.75,2.74,11.91,4.64,17.94,6.74,1.54.54,2.07,1.17,2,2.79-.1,5.07,0,10.14,0,15.21v7c3.41-2.76,6.51-5.4,9.76-7.83a3.17,3.17,0,0,0,1.45-3c-.09-3.32,0-6.66,0-10.65,3.82,1.7,7.27,3,10.52,4.77a4.48,4.48,0,0,0,4.1.21q8.18-3,16.46-5.61C216.93,163.81,219.15,163.51,221.35,163Z"/><path class="cls-1" d="M159.45,284.64c1.06-9.17.63-18-3.22-26.39-.66-1.43.15-1.87,1.13-2.36a9.12,9.12,0,0,0,5-6.74,33,33,0,0,0-.23-14.39c-2.52-10.57-7.91-19.22-18.51-22.95a152.42,152.42,0,0,0-22.9-5.6c-8-1.5-16.18-2.31-24.28-3.36a49.44,49.44,0,0,1-21.54-8.65c-.87-.59-1.84-1-3.24-1.81a18.58,18.58,0,0,0,.27,2.46c.79,2.87,1.56,5.74,2.45,8.57,5.14,16.39,11.35,32.33,21.38,46.44,10.61,14.92,24.42,23.78,43.59,21.69,5.52-.6,10.49-2.24,13.39-7.55.08-.15.33-.21.67-.41A57.68,57.68,0,0,1,159.45,284.64Z"/><path class="cls-1" d="M160.06,215.56c.51-2.66.84-4.86,1.36-7s1.35-4.41,1.88-6.65c.11-.44-.39-1.18-.81-1.56a23.49,23.49,0,0,1-6.48-9.51c-1.13-3.06-2.26-6.14-3.35-9.23-2-5.7-6.8-8.48-13-7.5a11.65,11.65,0,0,0-10.08,11.34,30.79,30.79,0,0,0,4.05,15.37,3.18,3.18,0,0,0,1.75,1.47C144.74,204.28,153.2,208,160.06,215.56Z"/><path class="cls-2" d="M179,250.52c-6.37,11.07-9.49,23-10.56,35.47-1.71-12.61-1.89-25.08,3-37.13.69-1.72,1.68-3.33,2.32-5.07a2.41,2.41,0,0,0-.35-2.15,16.25,16.25,0,0,1-6.89-14.31,109.77,109.77,0,0,1,1.67-18.4c2.3-11.8,10-19.85,19.82-26.12,11.48-7.33,24.13-11.6,37.46-13.76,9.9-1.6,19.91-2.49,29.83-4,10.91-1.65,21.14-5.48,31-10.39,1.93-1,3.88-1.89,5.89-2.68s3.31.11,2.76,2.29c-2,8-3.63,16.13-6.29,23.9a153.78,153.78,0,0,1-30.42,52.42c-9.45,10.73-20.23,19.82-33.53,25.5-6.54,2.8-13.37,4.8-20.58,4.27-8.68-.64-16.85-2.93-23.63-8.81A15.77,15.77,0,0,0,179,250.52Z"/><path class="cls-2" d="M159.45,284.64a57.68,57.68,0,0,0-6.06-21.05c-.34.2-.59.26-.67.41-2.9,5.31-7.87,6.95-13.39,7.55-19.17,2.09-33-6.77-43.59-21.69-10-14.11-16.24-30.05-21.38-46.44-.89-2.83-1.66-5.7-2.45-8.57a18.58,18.58,0,0,1-.27-2.46c1.4.78,2.37,1.22,3.24,1.81a49.44,49.44,0,0,0,21.54,8.65c8.1,1.05,16.26,1.86,24.28,3.36a152.42,152.42,0,0,1,22.9,5.6c10.6,3.73,16,12.38,18.51,22.95a33,33,0,0,1,.23,14.39,9.12,9.12,0,0,1-5,6.74c-1,.49-1.79.93-1.13,2.36C160.08,266.64,160.51,275.47,159.45,284.64Z"/><path class="cls-2" d="M160.06,215.56c-6.86-7.56-15.32-11.28-24.7-13.29a3.18,3.18,0,0,1-1.75-1.47,30.79,30.79,0,0,1-4.05-15.37,11.65,11.65,0,0,1,10.08-11.34c6.22-1,11,1.8,13,7.5,1.09,3.09,2.22,6.17,3.35,9.23a23.49,23.49,0,0,0,6.48,9.51c.42.38.92,1.12.81,1.56-.53,2.24-1.33,4.41-1.88,6.65S160.57,212.9,160.06,215.56Z"/><path class="cls-2" d="M220.09,160.7a37,37,0,0,0-17.54-13.33c-5.46-1.94-11-3.67-16.58-5.27-1.8-.52-2.27-1.26-2.25-3,.08-11.26,0-22.52,0-33.77v-2.52c1.12.36,2,.55,2.77.89a20.83,20.83,0,0,1,12.6,14.42c1.19,4.35,3.25,8.06,7.92,9.49,9.28,2.84,17.53-5,14.88-14.57-3.44-12.42-11.31-21.2-23.61-25.45-4.59-1.58-9.5-2.24-14.55-3.39V82.24c0-3.73,0-7.46,0-11.18a5.57,5.57,0,0,0-11.13,0c-.07,2.53,0,5.07,0,7.61,0,2,0,4,0,5.94-2.48.38-4.62.66-6.74,1.07-8,1.54-15.55,4.26-21.66,9.89-8.63,8-11.44,18.14-11,29.56.55,13.83,7.05,23.83,19.44,29.72,5.75,2.74,11.91,4.64,17.94,6.74,1.54.54,2.07,1.17,2,2.79-.1,5.07,0,10.14,0,15.21v7c3.41-2.76,6.51-5.4,9.76-7.83a3.17,3.17,0,0,0,1.45-3c-.09-3.32,0-6.66,0-10.65,3.82,1.7,7.27,3,10.52,4.77a4.48,4.48,0,0,0,4.1.21q8.18-3,16.46-5.61c2.09-.67,4.31-1,6.51-1.45a4.33,4.33,0,0,0-.27-.84C220.77,161.68,220.44,161.18,220.09,160.7Zm-47.65-22.91c-10.08-1.5-16.7-9-16.42-18.58.24-8.31,7.46-15.68,16.42-16.51Z"/><circle class="cls-3" cx="176.23" cy="170.18" r="151.17"/></svg>