<svg id="Layer_1" data-name="Layer 1" xmlns="http://www.w3.org/2000/svg" viewBox="0 0 360 339.84"><defs><style>.cls-1,.cls-2,.cls-3{fill:#404f5e;}.cls-1,.cls-3{stroke:#404f5e;stroke-miterlimit:10;}.cls-1{stroke-width:6px;}.cls-3{stroke-width:2px;}</style></defs><title>Mandate-Icons</title><path class="cls-1" d="M174.29,331.59l-7-.6c-33.63-2.79-63.61-14.78-89.63-36.2q-43.8-36-55.94-91.68a156.62,156.62,0,0,1-3.16-45.39c2.55-33.66,14.27-63.79,35.46-90.1a160.33,160.33,0,0,1,75.07-52.28,156.89,156.89,0,0,1,54.65-8.28c38.89,1,73.29,14.09,102.77,39.54,25.35,21.88,42.2,49.2,50.85,81.57.24.87.55,1.73.82,2.59v.33c-3.47.1-6.94.17-10.41.33a27.56,27.56,0,0,0-3.15.51c-13-44.8-40-77.93-82.29-97.77-31.15-14.6-63.81-17.47-97.18-9.34a148.83,148.83,0,0,0-113.45,148C33.55,245.32,86.8,303.53,153.66,315.6a149.11,149.11,0,0,0,170.82-109,36.18,36.18,0,0,0,13.74.57v.66a6.81,6.81,0,0,0-.34.89C329.81,240.13,314,267,290,288.85Q249,326.32,193.5,331c-2.27.19-4.54.4-6.8.6Z"/><path class="cls-2" d="M126.25,175.09a48.16,48.16,0,0,1,4.19,2.71,12.3,12.3,0,0,1,5,8.84,49.66,49.66,0,0,1-.11,11c-.92,5.74-4.63,9.41-10.21,11.11-.51.16-1,.25-1.58.38,0,0-.08.06-.2.18,4.53.77,8.38,2.77,10.46,6.87a21.2,21.2,0,0,1,0,20c-2.41,4.71-6.82,6.93-12.1,7-7.94.06-15.89.13-23.82-.14-6.68-.22-12.41-6.09-12.77-12.79a44.49,44.49,0,0,1,.22-9.59c.91-5.44,4.35-8.78,10.51-11.38-.59,0-1.19,0-1.78,0-3.15-.14-6.37.09-9.41-.53a13.82,13.82,0,0,1-11-13.77,60.67,60.67,0,0,1,.16-8.32c.7-5.09,3.64-8.72,8.37-11.06a4.48,4.48,0,0,0-.74-.41c-5.88-1.83-9.12-6.06-10-11.91a37,37,0,0,1,0-10.4c.77-5.28,3.82-9.13,9-11.35-.42-.25-.69-.44-1-.58a14.13,14.13,0,0,1-8.19-12.09c-.33-3.94-.58-7.94.67-11.81a13.6,13.6,0,0,1,13.49-9.8c11.64,0,23.29.21,34.93-.07,9-.22,14.67,6.29,15.12,14.15a39.78,39.78,0,0,1-.38,9.26,14,14,0,0,1-8.88,10.8c1.18.72,2.33,1.32,3.36,2.06a13.29,13.29,0,0,1,5.56,9.08,42,42,0,0,1,.28,9.58A14.55,14.55,0,0,1,126.25,175.09ZM103.57,112.7c-6,0-12,0-18,0-4.61,0-7.91,2.58-8.6,7.19a37,37,0,0,0-.21,8.61c.37,4.16,3.29,8.35,9.49,8.22,11.69-.25,23.39-.08,35.09-.08,4.3,0,7.68-2.22,8.39-6.43a33.74,33.74,0,0,0,.11-10.66c-.74-4.67-3.95-6.85-8.68-6.85C115.32,112.69,109.44,112.7,103.57,112.7Zm0,33.59H85.62c-4.52,0-7.92,2.6-8.59,7.05a36.68,36.68,0,0,0-.23,8.76c.43,4.44,3.52,8.35,9.49,8.23,11.64-.23,23.28-.07,34.92-.07,4.6,0,7.87-2.22,8.63-6.76a32.09,32.09,0,0,0,0-10.35c-.76-4.67-4-6.86-8.68-6.86Zm1.17,57.59c5.49,0,11,.05,16.48,0a8.87,8.87,0,0,0,9-9q.06-3.1,0-6.21a8.77,8.77,0,0,0-8.74-8.9q-16.82-.13-33.63,0a8.65,8.65,0,0,0-8.69,7.89,54.5,54.5,0,0,0-.16,6.52c0,5.93,3.79,9.66,9.71,9.67Zm5.8,34h11.25a8.86,8.86,0,0,0,8.75-8.71c0-1.91,0-3.81,0-5.71a8.81,8.81,0,0,0-8.85-8.77q-11.25-.06-22.51,0a8.58,8.58,0,0,0-8.49,6.94,40.52,40.52,0,0,0-.32,7,8.93,8.93,0,0,0,9.23,9.26C103.25,237.89,106.9,237.88,110.54,237.88Z"/><path class="cls-3" d="M274.16,88.34c-.68,13.54-1.36,26.88-2,40.18l-13.77.87c.43-8.44.88-17.16,1.33-25.94-3.7-.15-7.28-.28-10.85-.44a120,120,0,0,1-29-4.62A75.24,75.24,0,0,1,187.88,79.8c-.26-.26-.55-.49-.84-.74C184.8,81,182.7,83,180.45,84.72,171.32,91.91,160.84,96,149.52,98.1c-10.47,2-21.06,2.25-31.68,2.28l-3.1,0a2.49,2.49,0,0,0-.46.16v4.31h-5.82c-2,0-4-.08-6,0-1.31.07-1.83-.31-1.87-1.68-.15-4.88-.4-9.77-.63-14.9h1.78c8.1-.12,16.22,0,24.31-.4,13.28-.63,26.21-2.9,38.2-9.09a60.28,60.28,0,0,0,19.93-17c.86-1.12,1.8-2.18,2.87-3.46,1.42,1.66,2.83,3.21,4.11,4.85,9.93,12.66,23.33,19.31,38.74,22.48,12.12,2.49,24.4,2.71,36.7,2.64C269.05,88.32,271.54,88.34,274.16,88.34Z"/><path class="cls-3" d="M255.74,174.08c4.34,2.16,8.8,2.54,13.59,2.35-.15,2.59-.23,5.06-.45,7.52-.59,6.82-1.13,13.65-1.88,20.45-1.35,12.4-4,24.4-11.06,35-4.76,7.24-11.26,12.62-18.41,17.29-12.38,8.1-25.88,13.91-39.56,19.33q-4.92,1.95-9.88,3.76a3.09,3.09,0,0,1-2,.07c-14.19-5.29-28.25-10.86-41.52-18.23a92.85,92.85,0,0,1-20.1-14.36c-.39-.38-.74-.78-1.31-1.38a17.48,17.48,0,0,0,12.7-7.67c2.32,1.9,4.54,3.88,6.92,5.65,8.94,6.66,18.92,11.45,29.11,15.83,4.58,2,9.24,3.76,13.89,5.57a3.08,3.08,0,0,0,2,.14c13.65-5.21,27.15-10.76,39.44-18.8,7.78-5.08,14.56-11.19,19.1-19.48a55.25,55.25,0,0,0,6.27-20.24c1.22-10.63,2-21.31,3-32C255.64,174.75,255.68,174.54,255.74,174.08Z"/><path class="cls-2" d="M178.32,121.44h17.39v76.78H178.32Z"/><path class="cls-2" d="M272.84,174c-3.79-.26-7.65-.14-11.35-.84-9-1.7-15.45-10-15.71-19.11-.19-6.94,1.59-13,6.95-17.68a19.26,19.26,0,0,1,12.63-4.92c5.05-.09,10.11-.07,15.17,0A20.13,20.13,0,0,1,300.05,151c.11,5.13-.55,10-3.63,14.23a19.89,19.89,0,0,1-16.72,8.57c-2.28,0-4.56,0-6.85,0Zm.12-37.3v.21c-2.66,0-5.33-.12-8,0-6,.34-10.14,3.46-12.62,8.84-1.36,3-1.27,6.13-1,9.29a14.43,14.43,0,0,0,14.06,13.24c5.05.05,10.11.09,15.17,0a14,14,0,0,0,10.87-5.41c3-3.65,3.49-7.94,3.14-12.45-.5-6.6-4.84-11.91-11.36-13.15C279.86,136.66,276.37,136.87,273,136.7Z"/><path class="cls-2" d="M178.29,204.31h17.43v17.5H178.29Z"/></svg>