<svg xmlns="http://www.w3.org/2000/svg" viewBox="0 0 1400.21 92.57"><defs><style>.cls-1{fill:#ed1c24;}</style></defs><title>Signature-Colour]</title><path class="cls-1" d="M80.46,60.13a.83.83,0,0,1,.83.83v.53l-.45,11.29h2.22L82.6,61.49V61a.82.82,0,0,1,.82-.82l.28,0,12.35,1.59-.56-2.88c-.55-2.88.89-3.76.89-3.76L108,46.2s-1.21-1-2-1.61a1.2,1.2,0,0,1-.39-1.43l2.06-7.37s-4.27.78-5.82,1.16a1.94,1.94,0,0,1-2.16-.5l-1.55-3.27-6.5,6a1,1,0,0,1-1,.26,1,1,0,0,1-.7-1.19h0l2-13.4-5.09,2.21-5-8.63-5,8.63-5.09-2.21,2,13.4h0a1,1,0,0,1-.69,1.19,1,1,0,0,1-1-.26l-6.49-6L64.1,36.45A1.92,1.92,0,0,1,62,37c-1.56-.38-5.82-1.16-5.82-1.16l2,7.37a1.19,1.19,0,0,1-.39,1.43c-.77.61-2,1.61-2,1.61l11.58,8.92s1.43.88.88,3.76l-.55,2.88,12.46-1.6Z"/><rect class="cls-1" x="117.45" y="11.66" width="33.31" height="67.14"/><path d="M851,38.45c-11,0-14.39-9.17-14.39-15.54S840,7.37,851,7.37s14.39,9.16,14.39,15.54S862,38.45,851,38.45Zm0-27.55c-6.41,0-10.28,5.06-10.28,12s3.87,12,10.28,12,10.28-5.06,10.28-12S857.41,10.9,851,10.9Z"/><path d="M873.74,19.17v18.5h-3.62V19.17h-3v-3h3v-3.7c0-3.24,2-4.72,5.59-4.72.54,0,1.07,0,1.64.08v3.25c-.45,0-1-.09-1.47-.09-1.57,0-2.14.79-2.14,2.51v2.67h3.61v3Z"/><path d="M884.75,19.17v18.5h-3.61V19.17h-3v-3h3v-3.7c0-3.24,2.05-4.72,5.59-4.72.53,0,1.07,0,1.64.08v3.25c-.45,0-1-.09-1.48-.09-1.56,0-2.14.79-2.14,2.51v2.67h3.62v3Z"/><path d="M895,12.26V8.15h-3.61v4.11Zm0,3.9h-3.61V37.67H895Z"/><path d="M913.45,23.4c-.45-2.88-2.05-4.6-5.09-4.6-4.49,0-5.93,4.27-5.93,8.09s.91,8.27,5.88,8.27c2.43,0,4.53-1.81,5.14-5.1H917c-.37,3.41-2.47,8.22-8.76,8.22-6,0-9.62-4.56-9.62-10.77,0-6.66,3.21-12,10.32-12,5.63,0,7.77,4.11,8.06,7.85Z"/><path d="M938.41,30.92a9.28,9.28,0,0,1-3.82,5.88c-1,.66-2.39,1.48-5.84,1.48-6,0-9.62-4.56-9.62-10.77,0-6.66,3.2-12,10.32-12,6.21,0,9.25,4.93,9.25,12.54H923c0,4.48,2.1,7.07,6.25,7.07,3.41,0,5.43-2.63,5.55-4.24ZM935,25.21c-.21-3.33-1.61-6.41-6-6.41-3.33,0-6,3.08-6,6.41Z"/><path d="M962.38,15.55c6.87,0,10,5.8,10,11.34s-3.12,11.35-10,11.35-10-5.79-10-11.35S955.51,15.55,962.38,15.55Zm0,19.57c5.18,0,6.25-5.35,6.25-8.23s-1.07-8.22-6.25-8.22-6.25,5.35-6.25,8.22S957.2,35.12,962.38,35.12Z"/><path d="M980.55,19.17v18.5h-3.62V19.17h-3v-3h3v-3.7c0-3.24,2.06-4.72,5.6-4.72.53,0,1.07,0,1.64.08v3.25c-.45,0-1-.09-1.48-.09-1.56,0-2.14.79-2.14,2.51v2.67h3.62v3Z"/><path d="M1002.55,19.17v14c0,1.69,1.44,1.69,2.18,1.69H1006v2.84c-1.31.12-2.34.29-2.71.29-3.58,0-4.36-2-4.36-4.61V19.17H996v-3h2.92v-6h3.62v6H1006v3Z"/><path d="M1026.64,37.67H1023V23.61c0-2.92-.82-4.81-4.27-4.81-3,0-6,1.72-6,7.15V37.67h-3.62V8.15h3.62V19h.08a7.6,7.6,0,0,1,6.29-3.49c3.33,0,7.52,1.35,7.52,7.48Z"/><path d="M1049.83,30.92A9.28,9.28,0,0,1,1046,36.8c-1,.66-2.39,1.48-5.84,1.48-6.05,0-9.62-4.56-9.62-10.77,0-6.66,3.2-12,10.32-12,6.21,0,9.25,4.93,9.25,12.54h-15.71c0,4.48,2.1,7.07,6.25,7.07,3.41,0,5.43-2.63,5.55-4.24Zm-3.45-5.71c-.21-3.33-1.61-6.41-6-6.41-3.33,0-6,3.08-6,6.41Z"/><path d="M1083.3,16.78c-.21-4.56-4-6-7.32-6-2.51,0-6.74.7-6.74,5.18,0,2.51,1.76,3.33,3.49,3.74l8.43,1.93c3.82.91,6.7,3.21,6.7,7.9,0,7-6.49,8.92-11.55,8.92-5.47,0-7.61-1.65-8.92-2.84-2.51-2.26-3-4.73-3-7.48h3.74c0,5.34,4.35,6.91,8.14,6.91,2.87,0,7.73-.74,7.73-5,0-3.08-1.44-4.07-6.29-5.22l-6-1.4c-1.93-.45-6.29-1.81-6.29-7,0-4.6,3-9.12,10.16-9.12,10.32,0,11.35,6.16,11.51,9.41Z"/><path d="M1106.07,37.67V34.54l-.08-.08a7.08,7.08,0,0,1-6.82,3.82c-3.17,0-7-1.52-7-6.66V16.16h3.62V30.43c0,3.54,1.81,4.73,4.15,4.73,4.56,0,5.92-4,5.92-7.15V16.16h3.62V37.67Z"/><path d="M1114.22,16.16h3.41v3.05h.08a7.26,7.26,0,0,1,6.42-3.66c5.71,0,9,4.68,9,10.73,0,5.14-2.14,12-9.46,12a6.44,6.44,0,0,1-5.71-2.87h-.09V46.18h-3.61Zm9.33,19c4,0,5.79-3.58,5.79-8.31,0-2.75-.28-8-5.87-8-5.23,0-5.8,5.63-5.8,9.12C1117.67,33.64,1121.25,35.16,1123.55,35.16Z"/><path d="M1155.21,30.92a9.31,9.31,0,0,1-3.83,5.88c-1,.66-2.38,1.48-5.83,1.48-6,0-9.63-4.56-9.63-10.77,0-6.66,3.21-12,10.32-12,6.21,0,9.25,4.93,9.25,12.54h-15.7c0,4.48,2.1,7.07,6.25,7.07,3.41,0,5.43-2.63,5.55-4.24Zm-3.46-5.71c-.2-3.33-1.6-6.41-6-6.41-3.33,0-6,3.08-6,6.41Z"/><path d="M1163.51,37.67h-3.62V16.16h3.42v3.58h.08c1.44-2.51,3.33-4.19,6-4.19a3.05,3.05,0,0,1,1,.12v3.74H1169a5.47,5.47,0,0,0-5.51,5.76Z"/><path d="M1176.38,12.26V8.15h-3.62v4.11Zm0,3.9h-3.62V37.67h3.62Z"/><path d="M1198.91,37.67h-3.62V24.43c0-3.74-1.07-5.63-4.6-5.63-2.06,0-5.67,1.31-5.67,7.15V37.67h-3.62V16.16h3.41v3.05h.08a7.81,7.81,0,0,1,6.5-3.66c3.33,0,7.52,1.35,7.52,7.48Z"/><path d="M1208.29,19.17v14c0,1.69,1.43,1.69,2.17,1.69h1.28v2.84c-1.32.12-2.34.29-2.71.29-3.58,0-4.36-2-4.36-4.61V19.17h-2.92v-3h2.92v-6h3.62v6h3.45v3Z"/><path d="M1233.12,30.92a9.33,9.33,0,0,1-3.82,5.88c-1,.66-2.39,1.48-5.84,1.48-6,0-9.62-4.56-9.62-10.77,0-6.66,3.2-12,10.32-12,6.2,0,9.25,4.93,9.25,12.54H1217.7c0,4.48,2.1,7.07,6.25,7.07,3.41,0,5.43-2.63,5.55-4.24Zm-3.45-5.71c-.21-3.33-1.61-6.41-6-6.41-3.33,0-6,3.08-6,6.41Z"/><path d="M1254.83,37.67h-3.62V24.43c0-3.74-1.07-5.63-4.61-5.63-2,0-5.67,1.31-5.67,7.15V37.67h-3.62V16.16h3.42v3.05h.08a7.79,7.79,0,0,1,6.49-3.66c3.33,0,7.53,1.35,7.53,7.48Z"/><path d="M1277.61,37.67h-3.42v-3h-.08a6.47,6.47,0,0,1-6.13,3.57c-7.31,0-9.45-6.86-9.45-12,0-6.05,3.25-10.73,9-10.73a7.24,7.24,0,0,1,6.41,3.66h.09V8.15h3.62Zm-9.54-2.51c2.3,0,5.88-1.52,5.88-7.24,0-3.49-.58-9.12-5.8-9.12-5.59,0-5.88,5.3-5.88,8.05C1262.27,31.58,1264.12,35.16,1268.07,35.16Z"/><path d="M1300.46,30.92a9.28,9.28,0,0,1-3.82,5.88c-1,.66-2.38,1.48-5.84,1.48-6,0-9.62-4.56-9.62-10.77,0-6.66,3.21-12,10.32-12,6.21,0,9.25,4.93,9.25,12.54h-15.7c0,4.48,2.09,7.07,6.25,7.07,3.41,0,5.42-2.63,5.55-4.24ZM1297,25.21c-.21-3.33-1.6-6.41-6-6.41-3.33,0-6,3.08-6,6.41Z"/><path d="M1322.17,37.67h-3.62V24.43c0-3.74-1.06-5.63-4.6-5.63-2.06,0-5.67,1.31-5.67,7.15V37.67h-3.62V16.16h3.41v3.05h.08a7.81,7.81,0,0,1,6.5-3.66c3.33,0,7.52,1.35,7.52,7.48Z"/><path d="M1331.55,19.17v14c0,1.69,1.44,1.69,2.18,1.69H1335v2.84c-1.32.12-2.34.29-2.71.29-3.58,0-4.36-2-4.36-4.61V19.17H1325v-3h2.92v-6h3.62v6H1335v3Z"/><path d="M1357.9,15.55c6.87,0,10,5.8,10,11.34s-3.12,11.35-10,11.35-10-5.79-10-11.35S1351,15.55,1357.9,15.55Zm0,19.57c5.18,0,6.25-5.35,6.25-8.23s-1.07-8.22-6.25-8.22-6.25,5.35-6.25,8.22S1352.72,35.12,1357.9,35.12Z"/><path d="M1376.07,19.17v18.5h-3.61V19.17h-3v-3h3v-3.7c0-3.24,2-4.72,5.59-4.72.53,0,1.07,0,1.64.08v3.25c-.45,0-1-.09-1.48-.09-1.56,0-2.14.79-2.14,2.51v2.67h3.62v3Z"/><path d="M842.53,78.78h-4V49.26H859V52.8H842.53v9H857v3.54H842.53Z"/><path d="M866.09,53.37V49.26h-3.62v4.11Zm0,3.91h-3.62v21.5h3.62Z"/><path d="M888.62,78.78H885V65.54c0-3.74-1.07-5.63-4.6-5.63-2.06,0-5.68,1.32-5.68,7.15V78.78H871.1V57.28h3.42v3h.08a7.8,7.8,0,0,1,6.49-3.66c3.34,0,7.53,1.36,7.53,7.49Z"/><path d="M893.43,63.82c.17-5.14,3.58-7.16,8.88-7.16,1.73,0,8,.49,8,6V75c0,.91.45,1.28,1.19,1.28a7.09,7.09,0,0,0,1.19-.17v2.63a6.53,6.53,0,0,1-2,.41c-3.21,0-3.7-1.64-3.83-3.29a9.76,9.76,0,0,1-7.77,3.5c-3.94,0-6.74-2.51-6.74-6.21,0-1.81.53-6,6.54-6.74l6-.74c.86-.08,1.89-.41,1.89-2.55s-1.64-3.5-5.06-3.5c-4.11,0-4.68,2.51-4.93,4.16Zm13.24,4c-.58.46-1.48.78-6,1.36-1.77.25-4.61.78-4.61,3.5,0,2.34,1.19,3.74,3.91,3.74,3.37,0,6.66-2.18,6.66-5.06Z"/><path d="M933.52,78.78H929.9V65.54c0-3.74-1.07-5.63-4.61-5.63-2,0-5.67,1.32-5.67,7.15V78.78H916V57.28h3.41v3h.09A7.79,7.79,0,0,1,926,56.66c3.33,0,7.53,1.36,7.53,7.49Z"/><path d="M951.89,64.52c-.45-2.88-2-4.61-5.09-4.61-4.48,0-5.92,4.28-5.92,8.1s.9,8.26,5.87,8.26c2.43,0,4.53-1.8,5.14-5.09h3.5c-.37,3.41-2.47,8.22-8.76,8.22-6,0-9.62-4.56-9.62-10.77,0-6.66,3.21-12,10.32-12,5.63,0,7.77,4.11,8.06,7.86Z"/><path d="M958.68,53.37V49.26h3.62v4.11Zm3.62,25.41h-3.62V57.28h3.62Z"/><path d="M967.19,63.82c.16-5.14,3.58-7.16,8.88-7.16,1.73,0,8,.49,8,6V75c0,.91.45,1.28,1.19,1.28a7.09,7.09,0,0,0,1.19-.17v2.63a6.53,6.53,0,0,1-2,.41c-3.21,0-3.7-1.64-3.83-3.29a9.76,9.76,0,0,1-7.77,3.5c-3.94,0-6.74-2.51-6.74-6.21,0-1.81.53-6,6.54-6.74l6-.74c.86-.08,1.89-.41,1.89-2.55s-1.64-3.5-5.06-3.5c-4.11,0-4.68,2.51-4.93,4.16Zm13.24,4c-.58.46-1.48.78-6,1.36-1.77.25-4.61.78-4.61,3.5,0,2.34,1.19,3.74,3.91,3.74,3.37,0,6.66-2.18,6.66-5.06Z"/><path d="M993.46,78.78h-3.62V49.26h3.62Z"/><path d="M1014.55,78.78h-4V49.26h4Z"/><path d="M1038,78.78h-3.62V65.54c0-3.74-1.07-5.63-4.6-5.63-2.06,0-5.68,1.32-5.68,7.15V78.78h-3.62V57.28h3.42v3h.08a7.8,7.8,0,0,1,6.49-3.66c3.34,0,7.53,1.36,7.53,7.49Z"/><path d="M1055.17,63.41c0-1.36-.53-3.62-5.09-3.62-1.11,0-4.28.37-4.28,3,0,1.77,1.11,2.18,3.91,2.88l3.61.9c4.49,1.11,6,2.76,6,5.68,0,4.44-3.66,7.11-8.51,7.11-8.51,0-9.13-4.93-9.25-7.53h3.49c.12,1.69.62,4.4,5.72,4.4,2.59,0,4.93-1,4.93-3.41,0-1.73-1.19-2.3-4.28-3.08l-4.19-1c-3-.74-5-2.26-5-5.22,0-4.73,3.9-6.87,8.14-6.87,7.68,0,8.22,5.68,8.22,6.75Z"/><path d="M1067.55,60.28v14c0,1.69,1.44,1.69,2.18,1.69H1071v2.83c-1.31.12-2.34.29-2.71.29-3.58,0-4.36-2-4.36-4.6V60.28H1061v-3h2.92v-6h3.62v6H1071v3Z"/><path d="M1074.21,53.37V49.26h3.62v4.11Zm3.62,25.41h-3.62V57.28h3.62Z"/><path d="M1087.28,60.28v14c0,1.69,1.44,1.69,2.18,1.69h1.28v2.83c-1.32.12-2.35.29-2.72.29-3.57,0-4.35-2-4.35-4.6V60.28h-2.92v-3h2.92v-6h3.61v6h3.46v3Z"/><path d="M1107.88,78.78V75.66l-.08-.08A7.1,7.1,0,0,1,1101,79.4c-3.16,0-7-1.52-7-6.66V57.28h3.61V71.55c0,3.53,1.81,4.72,4.16,4.72,4.56,0,5.92-4,5.92-7.15V57.28h3.61v21.5Z"/><path d="M1120.75,60.28v14c0,1.69,1.44,1.69,2.18,1.69h1.28v2.83c-1.32.12-2.35.29-2.72.29-3.57,0-4.36-2-4.36-4.6V60.28h-2.92v-3h2.92v-6h3.62v6h3.46v3Z"/><path d="M1127.41,53.37V49.26H1131v4.11ZM1131,78.78h-3.62V57.28H1131Z"/><path d="M1144.8,56.66c6.87,0,10,5.8,10,11.35s-3.12,11.35-10,11.35-10-5.8-10-11.35S1137.94,56.66,1144.8,56.66Zm0,19.57c5.18,0,6.25-5.34,6.25-8.22s-1.07-8.22-6.25-8.22-6.25,5.34-6.25,8.22S1139.62,76.23,1144.8,76.23Z"/><path d="M1176,78.78h-3.62V65.54c0-3.74-1.07-5.63-4.61-5.63-2,0-5.67,1.32-5.67,7.15V78.78h-3.62V57.28h3.42v3h.08a7.79,7.79,0,0,1,6.5-3.66c3.32,0,7.52,1.36,7.52,7.49Z"/><path d="M1193.15,63.41c0-1.36-.53-3.62-5.1-3.62-1.1,0-4.27.37-4.27,3,0,1.77,1.11,2.18,3.9,2.88l3.62.9c4.49,1.11,6,2.76,6,5.68,0,4.44-3.66,7.11-8.51,7.11-8.51,0-9.13-4.93-9.25-7.53h3.49c.12,1.69.62,4.4,5.71,4.4,2.6,0,4.94-1,4.94-3.41,0-1.73-1.19-2.3-4.28-3.08l-4.19-1c-3-.74-5-2.26-5-5.22,0-4.73,3.91-6.87,8.14-6.87,7.69,0,8.23,5.68,8.23,6.75Z"/><path d="M1233.28,58.14C1232.17,53,1227.85,52,1225,52c-5.35,0-9.67,3.94-9.67,11.71,0,7,2.47,12.3,9.79,12.3,2.59,0,7.07-1.24,8.43-8.1h3.86c-1.64,11.14-10.69,11.63-12.91,11.63-6.7,0-13.28-4.35-13.28-15.7,0-9.09,5.19-15.38,13.78-15.38,7.6,0,11.55,4.73,12.13,9.66Z"/><path d="M1241.26,63.82c.16-5.14,3.57-7.16,8.88-7.16,1.72,0,8,.49,8,6V75c0,.91.46,1.28,1.2,1.28a7.23,7.23,0,0,0,1.19-.17v2.63a6.53,6.53,0,0,1-2,.41c-3.2,0-3.7-1.64-3.82-3.29a9.77,9.77,0,0,1-7.77,3.5c-4,0-6.74-2.51-6.74-6.21,0-1.81.53-6,6.54-6.74l6-.74c.86-.08,1.89-.41,1.89-2.55s-1.65-3.5-5.06-3.5c-4.11,0-4.69,2.51-4.93,4.16Zm13.24,4c-.58.46-1.48.78-6,1.36-1.76.25-4.6.78-4.6,3.5,0,2.34,1.19,3.74,3.91,3.74,3.37,0,6.66-2.18,6.66-5.06Z"/><path d="M1281.34,78.78h-3.62V65.54c0-3.74-1.06-5.63-4.6-5.63-2.06,0-5.67,1.32-5.67,7.15V78.78h-3.62V57.28h3.41v3h.08a7.82,7.82,0,0,1,6.5-3.66c3.33,0,7.52,1.36,7.52,7.49Z"/><path d="M1286.15,63.82c.17-5.14,3.58-7.16,8.89-7.16,1.72,0,8,.49,8,6V75c0,.91.45,1.28,1.19,1.28a7.19,7.19,0,0,0,1.2-.17v2.63a6.53,6.53,0,0,1-2,.41c-3.2,0-3.7-1.64-3.82-3.29a9.79,9.79,0,0,1-7.77,3.5c-3.95,0-6.74-2.51-6.74-6.21,0-1.81.53-6,6.53-6.74l6-.74c.87-.08,1.9-.41,1.9-2.55s-1.65-3.5-5.06-3.5c-4.11,0-4.69,2.51-4.94,4.16Zm13.24,4c-.57.46-1.48.78-6,1.36-1.77.25-4.6.78-4.6,3.5,0,2.34,1.19,3.74,3.9,3.74,3.37,0,6.66-2.18,6.66-5.06Z"/><path d="M1326.57,78.78h-3.41v-3h-.08A6.49,6.49,0,0,1,1317,79.4c-7.32,0-9.46-6.87-9.46-12,0-6,3.25-10.73,9-10.73a7.27,7.27,0,0,1,6.41,3.66h.08V49.26h3.62ZM1317,76.27c2.3,0,5.88-1.52,5.88-7.23,0-3.5-.57-9.13-5.8-9.13-5.59,0-5.88,5.3-5.88,8.06C1311.23,72.7,1313.08,76.27,1317,76.27Z"/><path d="M1331.05,63.82c.16-5.14,3.58-7.16,8.88-7.16,1.73,0,8,.49,8,6V75c0,.91.45,1.28,1.19,1.28a7.09,7.09,0,0,0,1.19-.17v2.63a6.46,6.46,0,0,1-2,.41c-3.21,0-3.7-1.64-3.82-3.29a9.79,9.79,0,0,1-7.77,3.5c-4,0-6.75-2.51-6.75-6.21,0-1.81.54-6,6.54-6.74l6-.74c.87-.08,1.89-.41,1.89-2.55s-1.64-3.5-5-3.5c-4.12,0-4.69,2.51-4.94,4.16Zm13.24,4c-.58.46-1.48.78-6,1.36-1.77.25-4.61.78-4.61,3.5,0,2.34,1.2,3.74,3.91,3.74,3.37,0,6.66-2.18,6.66-5.06Z"/><path d="M217,8.15h13c5.51,0,8.35,3.41,8.35,7.44a6.51,6.51,0,0,1-3.95,6.17c1.93.78,5.35,2.13,5.35,7.19,0,4.73-3.5,8.72-10,8.72H217Zm4,12.5h7.19c3.83,0,6.17-1.16,6.17-4.77,0-2.76-1.69-4.32-6.12-4.32H221Zm0,13.6h8.51c4.15,0,6.25-2.09,6.25-5.38,0-4.15-3.66-5-6.91-5H221Z"/><path d="M257.63,37.67V34.54l-.08-.08a7.08,7.08,0,0,1-6.82,3.82c-3.17,0-7-1.52-7-6.66V16.16h3.61V30.43c0,3.54,1.81,4.73,4.16,4.73,4.56,0,5.92-4,5.92-7.15V16.16h3.62V37.67Z"/><path d="M270.17,37.67h-3.62V16.16H270v3.58h.08c1.44-2.51,3.33-4.19,6-4.19a3,3,0,0,1,1,.12v3.74h-1.36a5.47,5.47,0,0,0-5.51,5.76Z"/><path d="M297.6,30.92a9.31,9.31,0,0,1-3.83,5.88c-1,.66-2.38,1.48-5.84,1.48-6,0-9.62-4.56-9.62-10.77,0-6.66,3.21-12,10.32-12,6.21,0,9.25,4.93,9.25,12.54h-15.7c0,4.48,2.09,7.07,6.25,7.07,3.41,0,5.42-2.63,5.55-4.24Zm-3.46-5.71c-.2-3.33-1.6-6.41-6-6.41-3.33,0-6,3.08-6,6.41Z"/><path d="M301.67,22.7c.16-5.14,3.57-7.15,8.88-7.15,1.72,0,8,.49,8,6V33.93c0,.9.46,1.27,1.2,1.27a7.13,7.13,0,0,0,1.19-.16v2.63a6.85,6.85,0,0,1-2,.41c-3.2,0-3.7-1.65-3.82-3.29a9.79,9.79,0,0,1-7.77,3.49c-3.95,0-6.74-2.5-6.74-6.2,0-1.81.53-6,6.54-6.75l6-.74C314,24.51,315,24.18,315,22s-1.65-3.49-5.06-3.49c-4.11,0-4.69,2.51-4.93,4.15Zm13.23,4c-.57.45-1.47.78-6,1.36-1.76.24-4.6.78-4.6,3.49,0,2.34,1.19,3.74,3.9,3.74,3.38,0,6.66-2.18,6.66-5.05Z"/><path d="M338.26,37.67V34.54l-.08-.08a7.09,7.09,0,0,1-6.83,3.82c-3.17,0-7-1.52-7-6.66V16.16H328V30.43c0,3.54,1.81,4.73,4.15,4.73,4.57,0,5.92-4,5.92-7.15V16.16h3.62V37.67Z"/><path d="M375.55,37.67h-3.41v-3h-.09a6.46,6.46,0,0,1-6.12,3.57c-7.32,0-9.46-6.86-9.46-12,0-6.05,3.25-10.73,9-10.73a7.26,7.26,0,0,1,6.42,3.66h.08V8.15h3.62ZM366,35.16c2.3,0,5.88-1.52,5.88-7.24,0-3.49-.57-9.12-5.8-9.12-5.59,0-5.88,5.3-5.88,8.05C360.21,31.58,362.06,35.16,366,35.16Z"/><path d="M394.17,37.67V34.54l-.08-.08a7.08,7.08,0,0,1-6.82,3.82c-3.17,0-7-1.52-7-6.66V16.16h3.62V30.43c0,3.54,1.8,4.73,4.15,4.73,4.56,0,5.92-4,5.92-7.15V16.16h3.62V37.67Z"/><path d="M425.83,22.29c0-1.36-.53-3.62-5.1-3.62-1.11,0-4.27.37-4.27,3,0,1.76,1.11,2.17,3.9,2.87l3.62.91c4.48,1.11,6,2.75,6,5.67,0,4.44-3.66,7.11-8.51,7.11-8.52,0-9.13-4.93-9.25-7.52h3.49c.12,1.69.62,4.4,5.71,4.4,2.59,0,4.94-1,4.94-3.41,0-1.73-1.19-2.31-4.28-3.09l-4.19-1c-3-.75-5-2.27-5-5.23,0-4.72,3.91-6.86,8.14-6.86,7.69,0,8.23,5.67,8.23,6.74Z"/><path d="M447.79,37.67V34.54l-.08-.08a7.09,7.09,0,0,1-6.83,3.82c-3.17,0-7-1.52-7-6.66V16.16h3.62V30.43c0,3.54,1.81,4.73,4.15,4.73,4.57,0,5.92-4,5.92-7.15V16.16h3.62V37.67Z"/><path d="M460.33,37.67h-3.62V16.16h3.41v3.58h.08c1.44-2.51,3.33-4.19,6.05-4.19a2.94,2.94,0,0,1,.94.12v3.74h-1.35a5.47,5.47,0,0,0-5.51,5.76Z"/><path d="M469.58,12.26V8.15h3.62v4.11Zm3.62,25.41h-3.62V16.16h3.62Z"/><path d="M495.73,37.67h-3.62V24.43c0-3.74-1.07-5.63-4.61-5.63-2.05,0-5.67,1.31-5.67,7.15V37.67h-3.62V16.16h3.41v3.05h.09a7.79,7.79,0,0,1,6.49-3.66c3.33,0,7.53,1.35,7.53,7.48Z"/><path d="M505.1,19.17v14c0,1.69,1.44,1.69,2.18,1.69h1.27v2.84c-1.31.12-2.34.29-2.71.29-3.58,0-4.36-2-4.36-4.61V19.17h-2.92v-3h2.92v-6h3.62v6h3.45v3Z"/><path d="M529.93,30.92a9.28,9.28,0,0,1-3.82,5.88c-1,.66-2.38,1.48-5.84,1.48-6,0-9.62-4.56-9.62-10.77,0-6.66,3.21-12,10.32-12,6.21,0,9.25,4.93,9.25,12.54h-15.7c0,4.48,2.09,7.07,6.25,7.07,3.41,0,5.42-2.63,5.55-4.24Zm-3.45-5.71c-.21-3.33-1.6-6.41-6-6.41-3.33,0-6,3.08-6,6.41Z"/><path d="M551.64,37.67H548V24.43c0-3.74-1.07-5.63-4.61-5.63-2.06,0-5.67,1.31-5.67,7.15V37.67h-3.62V16.16h3.41v3.05h.08a7.81,7.81,0,0,1,6.5-3.66c3.33,0,7.52,1.35,7.52,7.48Z"/><path d="M574.42,37.67H571v-3h-.08a6.48,6.48,0,0,1-6.13,3.57c-7.32,0-9.46-6.86-9.46-12,0-6.05,3.25-10.73,9-10.73a7.25,7.25,0,0,1,6.41,3.66h.08V8.15h3.62Zm-9.54-2.51c2.3,0,5.88-1.52,5.88-7.24,0-3.49-.57-9.12-5.8-9.12-5.59,0-5.88,5.3-5.88,8.05C559.08,31.58,560.93,35.16,564.88,35.16Z"/><path d="M578.9,22.7c.17-5.14,3.58-7.15,8.88-7.15,1.73,0,8,.49,8,6V33.93c0,.9.45,1.27,1.19,1.27a7,7,0,0,0,1.19-.16v2.63a6.78,6.78,0,0,1-2,.41c-3.21,0-3.7-1.65-3.82-3.29a9.79,9.79,0,0,1-7.77,3.49c-4,0-6.75-2.5-6.75-6.2,0-1.81.54-6,6.54-6.75l6-.74c.87-.08,1.89-.41,1.89-2.55s-1.64-3.49-5.05-3.49c-4.12,0-4.69,2.51-4.94,4.15Zm13.24,4c-.57.45-1.48.78-6,1.36-1.77.24-4.61.78-4.61,3.49,0,2.34,1.2,3.74,3.91,3.74,3.37,0,6.66-2.18,6.66-5.05Z"/><path d="M619,37.67h-3.62V24.43c0-3.74-1.07-5.63-4.6-5.63-2.06,0-5.68,1.31-5.68,7.15V37.67h-3.62V16.16h3.42v3.05H605a7.79,7.79,0,0,1,6.49-3.66c3.33,0,7.53,1.35,7.53,7.48Z"/><path d="M628.36,19.17v14c0,1.69,1.44,1.69,2.18,1.69h1.28v2.84c-1.32.12-2.35.29-2.72.29-3.57,0-4.36-2-4.36-4.61V19.17h-2.91v-3h2.91v-6h3.62v6h3.46v3Z"/><path d="M663.8,37.67h-3.41v-3h-.08a6.47,6.47,0,0,1-6.13,3.57c-7.32,0-9.45-6.86-9.45-12,0-6.05,3.24-10.73,9-10.73a7.25,7.25,0,0,1,6.41,3.66h.09V8.15h3.61Zm-9.54-2.51c2.31,0,5.88-1.52,5.88-7.24,0-3.49-.57-9.12-5.79-9.12-5.59,0-5.88,5.3-5.88,8.05C648.47,31.58,650.32,35.16,654.26,35.16Z"/><path d="M686.66,30.92a9.28,9.28,0,0,1-3.82,5.88c-1,.66-2.38,1.48-5.84,1.48-6,0-9.62-4.56-9.62-10.77,0-6.66,3.21-12,10.32-12,6.21,0,9.25,4.93,9.25,12.54H671.24c0,4.48,2.1,7.07,6.26,7.07,3.41,0,5.42-2.63,5.55-4.24Zm-3.45-5.71c-.21-3.33-1.6-6.41-6-6.41-3.33,0-6,3.08-6,6.41Z"/><path d="M703.07,22.29c0-1.36-.54-3.62-5.1-3.62-1.11,0-4.28.37-4.28,3,0,1.76,1.11,2.17,3.91,2.87l3.62.91c4.48,1.11,6,2.75,6,5.67,0,4.44-3.66,7.11-8.51,7.11-8.51,0-9.13-4.93-9.25-7.52H693c.12,1.69.61,4.4,5.71,4.4,2.59,0,4.93-1,4.93-3.41,0-1.73-1.19-2.31-4.27-3.09l-4.2-1c-3-.75-5-2.27-5-5.23,0-4.72,3.91-6.86,8.14-6.86,7.69,0,8.22,5.67,8.22,6.74Z"/><path d="M216.68,53.37V49.26h3.62v4.11Zm3.62,25.41h-3.62V57.28h3.62Z"/><path d="M242.83,78.78h-3.62V65.54c0-3.74-1.07-5.63-4.6-5.63-2.06,0-5.67,1.32-5.67,7.15V78.78h-3.62V57.28h3.41v3h.08a7.81,7.81,0,0,1,6.5-3.66c3.33,0,7.52,1.36,7.52,7.49Z"/><path d="M260,63.41c-.05-1.36-.54-3.62-5.1-3.62-1.11,0-4.28.37-4.28,3,0,1.77,1.11,2.18,3.91,2.88l3.62.9c4.48,1.11,6,2.76,6,5.68,0,4.44-3.66,7.11-8.51,7.11-8.51,0-9.13-4.93-9.25-7.53h3.49c.13,1.69.62,4.4,5.72,4.4,2.59,0,4.93-1,4.93-3.41,0-1.73-1.19-2.3-4.27-3.08l-4.2-1c-3-.74-5-2.26-5-5.22,0-4.73,3.9-6.87,8.14-6.87,7.69,0,8.22,5.68,8.22,6.75Z"/><path d="M272.35,60.28v14c0,1.69,1.44,1.69,2.18,1.69h1.28v2.83c-1.32.12-2.35.29-2.72.29-3.57,0-4.36-2-4.36-4.6V60.28h-2.92v-3h2.92v-6h3.62v6h3.46v3Z"/><path d="M282.63,53.37V49.26H279v4.11Zm0,3.91H279v21.5h3.62Z"/><path d="M292.09,60.28v14c0,1.69,1.43,1.69,2.17,1.69h1.28v2.83c-1.32.12-2.34.29-2.71.29-3.58,0-4.36-2-4.36-4.6V60.28h-2.92v-3h2.92v-6h3.62v6h3.45v3Z"/><path d="M312.68,78.78V75.66l-.08-.08a7.09,7.09,0,0,1-6.82,3.82c-3.17,0-7-1.52-7-6.66V57.28h3.62V71.55c0,3.53,1.8,4.72,4.15,4.72,4.56,0,5.92-4,5.92-7.15V57.28h3.62v21.5Z"/><path d="M325.55,60.28v14C325.55,76,327,76,327.73,76H329v2.83c-1.32.12-2.35.29-2.72.29-3.57,0-4.35-2-4.35-4.6V60.28H319v-3h2.92v-6h3.61v6H329v3Z"/><path d="M332.21,53.37V49.26h3.62v4.11Zm3.62,25.41h-3.62V57.28h3.62Z"/><path d="M349.6,56.66c6.87,0,10,5.8,10,11.35s-3.13,11.35-10,11.35-10-5.8-10-11.35S342.74,56.66,349.6,56.66Zm0,19.57c5.19,0,6.25-5.34,6.25-8.22s-1.06-8.22-6.25-8.22-6.24,5.34-6.24,8.22S344.42,76.23,349.6,76.23Z"/><path d="M380.81,78.78h-3.62V65.54c0-3.74-1.07-5.63-4.6-5.63-2.06,0-5.68,1.32-5.68,7.15V78.78H363.3V57.28h3.41v3h.08a7.81,7.81,0,0,1,6.5-3.66c3.33,0,7.52,1.36,7.52,7.49Z"/><path d="M398,63.41c0-1.36-.54-3.62-5.1-3.62-1.11,0-4.28.37-4.28,3,0,1.77,1.11,2.18,3.91,2.88l3.61.9c4.49,1.11,6,2.76,6,5.68,0,4.44-3.66,7.11-8.51,7.11-8.51,0-9.13-4.93-9.25-7.53h3.49c.13,1.69.62,4.4,5.72,4.4,2.59,0,4.93-1,4.93-3.41,0-1.73-1.19-2.3-4.27-3.08l-4.2-1c-3-.74-5-2.26-5-5.22,0-4.73,3.9-6.87,8.14-6.87,7.69,0,8.22,5.68,8.22,6.75Z"/><path d="M421.39,60.28v18.5h-3.62V60.28h-3v-3h3v-3.7c0-3.25,2.06-4.73,5.59-4.73.54,0,1.07,0,1.65.08v3.25c-.45,0-1-.08-1.48-.08-1.56,0-2.14.78-2.14,2.51v2.67H425v3Z"/><path d="M428,53.37V49.26h3.62v4.11Zm3.62,25.41H428V57.28h3.62Z"/><path d="M454.16,78.78h-3.62V65.54c0-3.74-1.07-5.63-4.6-5.63-2.06,0-5.68,1.32-5.68,7.15V78.78h-3.62V57.28h3.42v3h.08a7.81,7.81,0,0,1,6.5-3.66c3.33,0,7.52,1.36,7.52,7.49Z"/><path d="M459,63.82c.16-5.14,3.58-7.16,8.88-7.16,1.73,0,8,.49,8,6V75c0,.91.45,1.28,1.19,1.28a7.09,7.09,0,0,0,1.19-.17v2.63a6.53,6.53,0,0,1-2,.41c-3.21,0-3.7-1.64-3.83-3.29a9.76,9.76,0,0,1-7.77,3.5c-3.94,0-6.74-2.51-6.74-6.21,0-1.81.53-6,6.54-6.74l6-.74c.86-.08,1.89-.41,1.89-2.55s-1.64-3.5-5.06-3.5c-4.11,0-4.68,2.51-4.93,4.16Zm13.24,4c-.58.46-1.48.78-6,1.36-1.77.25-4.61.78-4.61,3.5,0,2.34,1.19,3.74,3.91,3.74,3.37,0,6.66-2.18,6.66-5.06Z"/><path d="M499.06,78.78h-3.62V65.54c0-3.74-1.07-5.63-4.61-5.63-2.05,0-5.67,1.32-5.67,7.15V78.78h-3.62V57.28H485v3H485a7.79,7.79,0,0,1,6.49-3.66c3.33,0,7.53,1.36,7.53,7.49Z"/><path d="M517.43,64.52c-.45-2.88-2-4.61-5.09-4.61-4.48,0-5.92,4.28-5.92,8.1s.9,8.26,5.87,8.26c2.43,0,4.53-1.8,5.14-5.09h3.5c-.37,3.41-2.47,8.22-8.76,8.22-6,0-9.62-4.56-9.62-10.77,0-6.66,3.21-12,10.32-12,5.63,0,7.77,4.11,8.06,7.86Z"/><path d="M524.22,53.37V49.26h3.62v4.11Zm3.62,25.41h-3.62V57.28h3.62Z"/><path d="M551.11,72a9.31,9.31,0,0,1-3.83,5.88c-1,.66-2.38,1.48-5.83,1.48-6.05,0-9.63-4.56-9.63-10.77,0-6.66,3.21-12,10.32-12,6.21,0,9.25,4.94,9.25,12.54h-15.7c0,4.48,2.1,7.07,6.25,7.07,3.41,0,5.43-2.63,5.55-4.23ZM535.36,48.6h4.44l3.66,5.8H540.7Zm12.29,17.72c-.2-3.33-1.6-6.41-6-6.41-3.33,0-6,3.08-6,6.41Z"/><path d="M559.41,78.78h-3.62V57.28h3.42v3.58h.08c1.44-2.51,3.33-4.2,6-4.2a2.75,2.75,0,0,1,.95.13v3.74h-1.36a5.46,5.46,0,0,0-5.51,5.75Z"/><path d="M586.83,72A9.24,9.24,0,0,1,583,77.92c-1,.66-2.38,1.48-5.84,1.48-6,0-9.62-4.56-9.62-10.77,0-6.66,3.21-12,10.32-12,6.21,0,9.25,4.94,9.25,12.54h-15.7c0,4.48,2.09,7.07,6.25,7.07,3.41,0,5.42-2.63,5.55-4.23Zm-3.45-5.72c-.2-3.33-1.6-6.41-6-6.41-3.33,0-6,3.08-6,6.41Z"/><path d="M603.24,63.41c0-1.36-.53-3.62-5.1-3.62-1.11,0-4.27.37-4.27,3,0,1.77,1.11,2.18,3.9,2.88l3.62.9c4.48,1.11,6,2.76,6,5.68,0,4.44-3.66,7.11-8.51,7.11-8.51,0-9.12-4.93-9.25-7.53h3.5c.12,1.69.61,4.4,5.71,4.4,2.59,0,4.93-1,4.93-3.41,0-1.73-1.19-2.3-4.27-3.08l-4.19-1c-3-.74-5-2.26-5-5.22,0-4.73,3.91-6.87,8.14-6.87,7.69,0,8.22,5.68,8.22,6.75Z"/><path d="M643.37,58.14C642.26,53,637.94,52,635.1,52c-5.34,0-9.66,3.94-9.66,11.71,0,7,2.47,12.3,9.79,12.3,2.59,0,7.07-1.24,8.43-8.1h3.86c-1.64,11.14-10.69,11.63-12.91,11.63-6.7,0-13.28-4.35-13.28-15.7,0-9.09,5.18-15.38,13.77-15.38,7.61,0,11.56,4.73,12.13,9.66Z"/><path d="M651.34,63.82c.17-5.14,3.58-7.16,8.88-7.16,1.73,0,8,.49,8,6V75c0,.91.45,1.28,1.19,1.28a7.34,7.34,0,0,0,1.2-.17v2.63a6.6,6.6,0,0,1-2,.41c-3.21,0-3.7-1.64-3.82-3.29A9.79,9.79,0,0,1,657,79.4c-3.95,0-6.75-2.51-6.75-6.21,0-1.81.54-6,6.54-6.74l6-.74c.87-.08,1.89-.41,1.89-2.55s-1.64-3.5-5-3.5c-4.11,0-4.69,2.51-4.94,4.16Zm13.24,4c-.57.46-1.48.78-6,1.36-1.77.25-4.6.78-4.6,3.5,0,2.34,1.19,3.74,3.9,3.74,3.37,0,6.66-2.18,6.66-5.06Z"/><path d="M691.43,78.78h-3.62V65.54c0-3.74-1.07-5.63-4.6-5.63-2.06,0-5.68,1.32-5.68,7.15V78.78h-3.61V57.28h3.41v3h.08a7.81,7.81,0,0,1,6.5-3.66c3.33,0,7.52,1.36,7.52,7.49Z"/><path d="M696.24,63.82c.16-5.14,3.58-7.16,8.88-7.16,1.73,0,8,.49,8,6V75c0,.91.45,1.28,1.19,1.28a7.09,7.09,0,0,0,1.19-.17v2.63a6.53,6.53,0,0,1-2,.41c-3.21,0-3.7-1.64-3.82-3.29a9.8,9.8,0,0,1-7.78,3.5c-3.94,0-6.74-2.51-6.74-6.21,0-1.81.54-6,6.54-6.74l6-.74c.87-.08,1.89-.41,1.89-2.55s-1.64-3.5-5-3.5c-4.12,0-4.69,2.51-4.94,4.16Zm13.24,4c-.58.46-1.48.78-6,1.36-1.77.25-4.61.78-4.61,3.5,0,2.34,1.2,3.74,3.91,3.74,3.37,0,6.66-2.18,6.66-5.06Z"/><path d="M736.65,78.78h-3.41v-3h-.08A6.47,6.47,0,0,1,727,79.4c-7.32,0-9.46-6.87-9.46-12,0-6,3.25-10.73,9-10.73A7.29,7.29,0,0,1,733,60.32H733V49.26h3.61Zm-9.53-2.51c2.3,0,5.88-1.52,5.88-7.23,0-3.5-.58-9.13-5.8-9.13-5.59,0-5.88,5.3-5.88,8.06C721.32,72.7,723.17,76.27,727.12,76.27Z"/><path d="M741.14,63.82c.16-5.14,3.57-7.16,8.88-7.16,1.72,0,8,.49,8,6V75c0,.91.45,1.28,1.19,1.28a7.09,7.09,0,0,0,1.19-.17v2.63a6.53,6.53,0,0,1-2,.41c-3.21,0-3.7-1.64-3.83-3.29a9.79,9.79,0,0,1-7.77,3.5c-3.95,0-6.74-2.51-6.74-6.21,0-1.81.53-6,6.54-6.74l6-.74c.86-.08,1.89-.41,1.89-2.55s-1.64-3.5-5.06-3.5c-4.11,0-4.69,2.51-4.93,4.16Zm13.24,4c-.58.46-1.48.78-6,1.36-1.77.25-4.61.78-4.61,3.5,0,2.34,1.19,3.74,3.91,3.74,3.37,0,6.66-2.18,6.66-5.06Z"/><rect class="cls-1" x="13.03" y="11.66" width="33.31" height="67.14"/></svg>