<svg xmlns="http://www.w3.org/2000/svg" viewBox="0 0 1400.21 87.82"><defs><style>.cls-1{fill:#ed1c24;}</style></defs><title>Signature-Colour]</title><path class="cls-1" d="M80.73,58.34a.81.81,0,0,1,.81.81v.53l-.44,11.13h2.19l-.44-11.13v-.47a.81.81,0,0,1,.81-.81l.27,0L96.11,60l-.54-2.84c-.55-2.84.87-3.72.87-3.72l11.42-8.79s-1.2-1-2-1.59a1.18,1.18,0,0,1-.38-1.41l2-7.27s-4.2.77-5.74,1.15A1.92,1.92,0,0,1,99.66,35l-1.53-3.23-6.4,5.94a1,1,0,0,1-.94.26,1,1,0,0,1-.69-1.18h0l2-13.22-5,2.18-4.92-8.52-4.91,8.52-5-2.18,2,13.22h0a1,1,0,0,1-1.63.92l-6.4-5.94L64.6,35a1.92,1.92,0,0,1-2.13.49c-1.53-.38-5.74-1.15-5.74-1.15l2,7.27A1.18,1.18,0,0,1,58.37,43l-2,1.59,11.42,8.79s1.42.88.88,3.72L68.15,60l12.3-1.59Z"/><rect class="cls-1" x="117.21" y="10.53" width="32.85" height="66.23"/><path d="M229.46,37c-10.87,0-14.2-9-14.2-15.33S218.59,6.3,229.46,6.3s14.19,9,14.19,15.32S240.32,37,229.46,37Zm0-27.17c-6.33,0-10.14,5-10.14,11.84s3.81,11.85,10.14,11.85,10.14-5,10.14-11.85S235.78,9.78,229.46,9.78Z"/><path d="M251.88,17.93V36.18h-3.57V17.93H245.4V15h2.91V11.32c0-3.2,2-4.66,5.52-4.66.53,0,1,0,1.62.08V10A14.3,14.3,0,0,0,254,9.86c-1.54,0-2.11.77-2.11,2.48V15h3.57v3Z"/><path d="M262.75,17.93V36.18h-3.57V17.93h-2.92V15h2.92V11.32c0-3.2,2-4.66,5.52-4.66.52,0,1.05,0,1.62.08V10a14.3,14.3,0,0,0-1.46-.09c-1.54,0-2.11.77-2.11,2.48V15h3.57v3Z"/><path d="M269.28,11.12v-4h3.57v4Zm3.57,25.06h-3.57V15h3.57Z"/><path d="M291.06,22.11c-.45-2.84-2-4.54-5-4.54-4.42,0-5.84,4.22-5.84,8s.89,8.15,5.8,8.15c2.39,0,4.46-1.79,5.07-5h3.44c-.36,3.37-2.43,8.11-8.63,8.11-6,0-9.49-4.5-9.49-10.62,0-6.57,3.16-11.8,10.17-11.8,5.56,0,7.67,4.05,7.95,7.74Z"/><path d="M315.67,29.53a9.12,9.12,0,0,1-3.77,5.8c-1,.65-2.35,1.46-5.76,1.46-6,0-9.49-4.5-9.49-10.62,0-6.57,3.16-11.8,10.18-11.8,6.12,0,9.12,4.86,9.12,12.36H300.46c0,4.42,2.07,7,6.17,7,3.36,0,5.35-2.6,5.47-4.18Zm-3.41-5.64c-.2-3.28-1.58-6.32-5.92-6.32-3.28,0-5.88,3-5.88,6.32Z"/><path d="M339.31,14.37c6.77,0,9.86,5.71,9.86,11.19s-3.09,11.19-9.86,11.19-9.85-5.72-9.85-11.19S332.54,14.37,339.31,14.37Zm0,19.3c5.11,0,6.17-5.27,6.17-8.11s-1.06-8.11-6.17-8.11-6.16,5.27-6.16,8.11S334.2,33.67,339.31,33.67Z"/><path d="M357.24,17.93V36.18h-3.57V17.93h-2.92V15h2.92V11.32c0-3.2,2-4.66,5.51-4.66.53,0,1.06,0,1.63.08V10a14.48,14.48,0,0,0-1.46-.09c-1.54,0-2.11.77-2.11,2.48V15h3.57v3Z"/><path d="M378.93,17.93V31.72c0,1.66,1.42,1.66,2.15,1.66h1.26v2.8c-1.3.12-2.31.29-2.68.29-3.53,0-4.3-2-4.3-4.55v-14h-2.88V15h2.88V9.05h3.57V15h3.41v3Z"/><path d="M402.7,36.18h-3.57V22.31c0-2.88-.81-4.74-4.22-4.74-2.92,0-5.92,1.7-5.92,7.05V36.18h-3.57V7.07H389V17.81h.08a7.48,7.48,0,0,1,6.2-3.44c3.29,0,7.43,1.33,7.43,7.38Z"/><path d="M425.57,29.53a9.2,9.2,0,0,1-3.77,5.8c-1,.65-2.36,1.46-5.76,1.46-6,0-9.49-4.5-9.49-10.62,0-6.57,3.16-11.8,10.18-11.8,6.12,0,9.12,4.86,9.12,12.36H410.36c0,4.42,2.07,7,6.16,7,3.37,0,5.36-2.6,5.48-4.18Zm-3.41-5.64c-.2-3.28-1.58-6.32-5.92-6.32-3.28,0-5.88,3-5.88,6.32Z"/><path d="M458.58,15.58c-.21-4.5-3.94-5.92-7.22-5.92-2.48,0-6.65.69-6.65,5.11,0,2.47,1.74,3.29,3.44,3.69l8.32,1.91c3.77.89,6.61,3.16,6.61,7.78,0,6.9-6.41,8.8-11.4,8.8-5.39,0-7.5-1.62-8.8-2.8-2.47-2.23-3-4.66-3-7.38h3.69c0,5.28,4.3,6.82,8,6.82,2.84,0,7.63-.73,7.63-4.91,0-3-1.42-4-6.21-5.15l-6-1.38c-1.91-.45-6.2-1.78-6.2-6.85,0-4.54,3-9,10-9,10.18,0,11.19,6.08,11.36,9.28Z"/><path d="M481,36.18V33.1L481,33a7,7,0,0,1-6.73,3.77c-3.12,0-6.89-1.5-6.89-6.57V15h3.56V29.05c0,3.48,1.79,4.66,4.1,4.66,4.5,0,5.84-4,5.84-7.06V15h3.57V36.18Z"/><path d="M489.07,15h3.37v3h.08a7.17,7.17,0,0,1,6.32-3.6c5.64,0,8.84,4.62,8.84,10.58,0,5.07-2.1,11.84-9.32,11.84A6.38,6.38,0,0,1,492.72,34h-.08V44.58h-3.57Zm9.21,18.74c3.89,0,5.71-3.53,5.71-8.19,0-2.72-.28-7.95-5.79-7.95-5.15,0-5.72,5.55-5.72,9C492.48,32.21,496,33.71,498.28,33.71Z"/><path d="M529.5,29.53a9.12,9.12,0,0,1-3.77,5.8c-1,.65-2.35,1.46-5.76,1.46-6,0-9.49-4.5-9.49-10.62,0-6.57,3.17-11.8,10.18-11.8,6.12,0,9.13,4.86,9.13,12.36h-15.5c0,4.42,2.07,7,6.17,7,3.36,0,5.35-2.6,5.47-4.18Zm-3.4-5.64c-.21-3.28-1.59-6.32-5.93-6.32-3.28,0-5.88,3-5.88,6.32Z"/><path d="M537.69,36.18h-3.56V15h3.36V18.5h.08c1.42-2.47,3.29-4.13,6-4.13a3,3,0,0,1,.94.12v3.69h-1.34a5.39,5.39,0,0,0-5.44,5.67Z"/><path d="M546.82,11.12v-4h3.57v4Zm3.57,25.06h-3.57V15h3.57Z"/><path d="M572.61,36.18H569V23.12c0-3.69-1.06-5.55-4.54-5.55-2,0-5.6,1.3-5.6,7.05V36.18h-3.57V15h3.37v3h.08a7.7,7.7,0,0,1,6.41-3.6c3.28,0,7.42,1.33,7.42,7.38Z"/><path d="M581.85,17.93V31.72c0,1.66,1.42,1.66,2.15,1.66h1.26v2.8c-1.3.12-2.31.29-2.68.29-3.52,0-4.29-2-4.29-4.55v-14h-2.88V15h2.88V9.05h3.56V15h3.41v3Z"/><path d="M606.35,29.53a9.16,9.16,0,0,1-3.77,5.8c-1,.65-2.36,1.46-5.76,1.46-6,0-9.49-4.5-9.49-10.62,0-6.57,3.16-11.8,10.18-11.8,6.12,0,9.12,4.86,9.12,12.36H591.14c0,4.42,2.07,7,6.16,7,3.37,0,5.36-2.6,5.48-4.18Zm-3.41-5.64c-.2-3.28-1.58-6.32-5.92-6.32-3.28,0-5.88,3-5.88,6.32Z"/><path d="M627.76,36.18h-3.57V23.12c0-3.69-1.05-5.55-4.54-5.55-2,0-5.6,1.3-5.6,7.05V36.18h-3.57V15h3.37v3h.08a7.7,7.7,0,0,1,6.41-3.6c3.28,0,7.42,1.33,7.42,7.38Z"/><path d="M650.22,36.18h-3.36V33.26h-.08a6.39,6.39,0,0,1-6,3.53c-7.22,0-9.33-6.77-9.33-11.84,0-6,3.2-10.58,8.84-10.58a7.17,7.17,0,0,1,6.32,3.6h.09V7.07h3.56Zm-9.4-2.47c2.27,0,5.8-1.5,5.8-7.14,0-3.45-.57-9-5.72-9-5.52,0-5.8,5.23-5.8,8C635.1,30.18,636.92,33.71,640.82,33.71Z"/><path d="M672.77,29.53a9.12,9.12,0,0,1-3.77,5.8c-1,.65-2.35,1.46-5.76,1.46-6,0-9.49-4.5-9.49-10.62,0-6.57,3.17-11.8,10.18-11.8,6.12,0,9.12,4.86,9.12,12.36H657.56c0,4.42,2.07,7,6.17,7,3.36,0,5.35-2.6,5.47-4.18Zm-3.41-5.64c-.2-3.28-1.58-6.32-5.92-6.32-3.28,0-5.88,3-5.88,6.32Z"/><path d="M694.18,36.18h-3.57V23.12c0-3.69-1.05-5.55-4.54-5.55-2,0-5.59,1.3-5.59,7.05V36.18h-3.57V15h3.36v3h.08a7.7,7.7,0,0,1,6.41-3.6c3.29,0,7.42,1.33,7.42,7.38Z"/><path d="M703.43,17.93V31.72c0,1.66,1.42,1.66,2.15,1.66h1.26v2.8c-1.3.12-2.32.29-2.68.29-3.53,0-4.3-2-4.3-4.55v-14H697V15h2.88V9.05h3.57V15h3.41v3Z"/><path d="M729.42,14.37c6.78,0,9.86,5.71,9.86,11.19s-3.08,11.19-9.86,11.19-9.85-5.72-9.85-11.19S722.65,14.37,729.42,14.37Zm0,19.3c5.11,0,6.17-5.27,6.17-8.11s-1.06-8.11-6.17-8.11-6.16,5.27-6.16,8.11S724.31,33.67,729.42,33.67Z"/><path d="M747.35,17.93V36.18h-3.57V17.93h-2.92V15h2.92V11.32c0-3.2,2-4.66,5.51-4.66.53,0,1.06,0,1.63.08V10a14.48,14.48,0,0,0-1.46-.09c-1.54,0-2.11.77-2.11,2.48V15h3.57v3Z"/><path d="M221.1,76.74h-3.93V47.62h20.15V51.1H221.1V60h14.28v3.49H221.1Z"/><path d="M244.34,51.67V47.62h-3.57v4.05Zm0,3.86h-3.57V76.74h3.57Z"/><path d="M266.56,76.74H263V63.68c0-3.69-1.05-5.56-4.54-5.56-2,0-5.59,1.3-5.59,7.06V76.74h-3.57V55.53h3.36v3h.08a7.69,7.69,0,0,1,6.41-3.61c3.29,0,7.42,1.34,7.42,7.38Z"/><path d="M271.31,62c.16-5.06,3.52-7,8.76-7,1.7,0,7.86.48,7.86,5.92V73c0,.9.45,1.26,1.18,1.26a6.78,6.78,0,0,0,1.17-.16v2.6a6.58,6.58,0,0,1-1.94.4c-3.16,0-3.65-1.62-3.77-3.24a9.65,9.65,0,0,1-7.67,3.44c-3.89,0-6.65-2.47-6.65-6.12,0-1.79.53-5.92,6.45-6.65l5.88-.73c.85-.08,1.87-.41,1.87-2.52s-1.63-3.44-5-3.44c-4.06,0-4.63,2.47-4.87,4.09Zm13.05,3.94c-.56.44-1.46.77-5.88,1.34-1.74.24-4.54.77-4.54,3.44,0,2.31,1.18,3.69,3.85,3.69,3.33,0,6.57-2.15,6.57-5Z"/><path d="M310.85,76.74h-3.57V63.68c0-3.69-1.06-5.56-4.55-5.56-2,0-5.59,1.3-5.59,7.06V76.74h-3.57V55.53h3.37v3H297a7.67,7.67,0,0,1,6.4-3.61c3.29,0,7.43,1.34,7.43,7.38Z"/><path d="M329,62.66c-.44-2.84-2-4.54-5-4.54-4.42,0-5.84,4.22-5.84,8s.9,8.15,5.8,8.15c2.4,0,4.46-1.78,5.07-5h3.45c-.37,3.37-2.43,8.11-8.64,8.11-6,0-9.49-4.5-9.49-10.62,0-6.57,3.16-11.8,10.18-11.8,5.56,0,7.66,4,7.95,7.74Z"/><path d="M335.66,51.67V47.62h3.57v4.05Zm3.57,25.07h-3.57V55.53h3.57Z"/><path d="M344.06,62c.16-5.06,3.52-7,8.76-7,1.7,0,7.86.48,7.86,5.92V73c0,.9.45,1.26,1.18,1.26a6.78,6.78,0,0,0,1.17-.16v2.6a6.58,6.58,0,0,1-1.94.4c-3.17,0-3.65-1.62-3.77-3.24a9.65,9.65,0,0,1-7.67,3.44c-3.89,0-6.65-2.47-6.65-6.12,0-1.79.53-5.92,6.45-6.65l5.88-.73c.85-.08,1.87-.41,1.87-2.52s-1.63-3.44-5-3.44c-4.06,0-4.63,2.47-4.87,4.09Zm13.05,3.94c-.56.44-1.46.77-5.88,1.34-1.74.24-4.54.77-4.54,3.44,0,2.31,1.18,3.69,3.85,3.69,3.33,0,6.57-2.15,6.57-5Z"/><path d="M370,76.74H366.4V47.62H370Z"/><path d="M390.77,76.74h-3.93V47.62h3.93Z"/><path d="M413.93,76.74h-3.57V63.68c0-3.69-1.06-5.56-4.54-5.56-2,0-5.6,1.3-5.6,7.06V76.74h-3.57V55.53H400v3h.08a7.69,7.69,0,0,1,6.41-3.61c3.28,0,7.42,1.34,7.42,7.38Z"/><path d="M430.84,61.57c0-1.34-.53-3.57-5-3.57-1.1,0-4.22.36-4.22,3,0,1.74,1.1,2.15,3.85,2.84l3.57.89c4.42,1.1,6,2.72,6,5.6,0,4.38-3.61,7-8.39,7-8.4,0-9-4.86-9.12-7.42h3.44c.12,1.66.61,4.34,5.64,4.34,2.55,0,4.86-1,4.86-3.36,0-1.71-1.17-2.28-4.21-3.05l-4.14-1c-3-.73-4.91-2.23-4.91-5.15,0-4.66,3.86-6.77,8-6.77,7.59,0,8.11,5.59,8.11,6.65Z"/><path d="M443,58.48V72.27c0,1.67,1.42,1.67,2.15,1.67h1.26v2.8c-1.3.12-2.31.28-2.68.28-3.52,0-4.3-2-4.3-4.54v-14H436.6V55.53h2.87V49.6H443v5.93h3.41v2.95Z"/><path d="M449.61,51.67V47.62h3.57v4.05Zm3.57,25.07h-3.57V55.53h3.57Z"/><path d="M462.51,58.48V72.27c0,1.67,1.42,1.67,2.15,1.67h1.25v2.8c-1.29.12-2.31.28-2.67.28-3.53,0-4.3-2-4.3-4.54v-14h-2.88V55.53h2.88V49.6h3.57v5.93h3.4v2.95Z"/><path d="M482.82,76.74V73.65l-.08-.08A7,7,0,0,1,476,77.34c-3.12,0-6.89-1.5-6.89-6.57V55.53h3.57V69.6c0,3.48,1.78,4.66,4.09,4.66,4.5,0,5.84-4,5.84-7.06V55.53h3.57V76.74Z"/><path d="M495.52,58.48V72.27c0,1.67,1.42,1.67,2.15,1.67h1.25v2.8c-1.29.12-2.31.28-2.67.28-3.53,0-4.3-2-4.3-4.54v-14h-2.88V55.53H492V49.6h3.57v5.93h3.4v2.95Z"/><path d="M502.09,51.67V47.62h3.57v4.05Zm3.57,25.07h-3.57V55.53h3.57Z"/><path d="M519.24,54.92c6.77,0,9.85,5.72,9.85,11.19S526,77.3,519.24,77.3s-9.85-5.72-9.85-11.19S512.47,54.92,519.24,54.92Zm0,19.3c5.11,0,6.16-5.27,6.16-8.11s-1-8.11-6.16-8.11-6.16,5.27-6.16,8.11S514.13,74.22,519.24,74.22Z"/><path d="M550,76.74h-3.57V63.68c0-3.69-1.05-5.56-4.54-5.56-2,0-5.6,1.3-5.6,7.06V76.74h-3.57V55.53h3.37v3h.08a7.69,7.69,0,0,1,6.41-3.61c3.28,0,7.42,1.34,7.42,7.38Z"/><path d="M566.93,61.57c0-1.34-.53-3.57-5-3.57-1.09,0-4.22.36-4.22,3,0,1.74,1.1,2.15,3.86,2.84l3.56.89c4.42,1.1,6,2.72,6,5.6,0,4.38-3.6,7-8.39,7-8.39,0-9-4.86-9.12-7.42H557c.13,1.66.61,4.34,5.64,4.34,2.56,0,4.87-1,4.87-3.36,0-1.71-1.18-2.28-4.22-3.05l-4.14-1c-3-.73-4.9-2.23-4.9-5.15,0-4.66,3.85-6.77,8-6.77,7.59,0,8.12,5.59,8.12,6.65Z"/><path d="M606.51,56.38c-1.1-5.11-5.36-6.05-8.15-6.05-5.27,0-9.53,3.9-9.53,11.56,0,6.86,2.43,12.13,9.65,12.13,2.55,0,7-1.22,8.31-8h3.81C609,77,600.06,77.51,597.87,77.51c-6.61,0-13.1-4.3-13.1-15.5,0-9,5.11-15.16,13.59-15.16,7.5,0,11.39,4.66,12,9.53Z"/><path d="M614.37,62c.17-5.06,3.53-7,8.76-7,1.71,0,7.87.48,7.87,5.92V73c0,.9.45,1.26,1.18,1.26a6.78,6.78,0,0,0,1.17-.16v2.6a6.65,6.65,0,0,1-1.94.4c-3.17,0-3.65-1.62-3.78-3.24A9.61,9.61,0,0,1,620,77.34c-3.89,0-6.65-2.47-6.65-6.12,0-1.79.53-5.92,6.45-6.65l5.88-.73c.85-.08,1.86-.41,1.86-2.52s-1.62-3.44-5-3.44c-4,0-4.62,2.47-4.86,4.09Zm13.06,3.94c-.57.44-1.46.77-5.88,1.34-1.74.24-4.54.77-4.54,3.44,0,2.31,1.18,3.69,3.85,3.69,3.33,0,6.57-2.15,6.57-5Z"/><path d="M653.91,76.74h-3.57V63.68c0-3.69-1.05-5.56-4.54-5.56-2,0-5.59,1.3-5.59,7.06V76.74h-3.57V55.53H640v3h.08a7.7,7.7,0,0,1,6.41-3.61c3.29,0,7.42,1.34,7.42,7.38Z"/><path d="M658.66,62c.16-5.06,3.52-7,8.76-7,1.7,0,7.86.48,7.86,5.92V73c0,.9.45,1.26,1.18,1.26a7,7,0,0,0,1.18-.16v2.6a6.72,6.72,0,0,1-1.95.4c-3.16,0-3.65-1.62-3.77-3.24a9.65,9.65,0,0,1-7.67,3.44c-3.89,0-6.65-2.47-6.65-6.12,0-1.79.53-5.92,6.45-6.65l5.88-.73c.85-.08,1.87-.41,1.87-2.52s-1.63-3.44-5-3.44c-4.06,0-4.63,2.47-4.87,4.09Zm13.06,3.94c-.57.44-1.46.77-5.88,1.34-1.75.24-4.55.77-4.55,3.44,0,2.31,1.18,3.69,3.86,3.69,3.32,0,6.57-2.15,6.57-5Z"/><path d="M698.52,76.74h-3.37V73.81h-.08a6.38,6.38,0,0,1-6,3.53c-7.22,0-9.33-6.77-9.33-11.84,0-6,3.21-10.58,8.84-10.58a7.16,7.16,0,0,1,6.33,3.61H695V47.62h3.57Zm-9.41-2.48c2.27,0,5.8-1.5,5.8-7.14,0-3.44-.57-9-5.72-9-5.51,0-5.8,5.23-5.8,7.95C683.39,70.73,685.22,74.26,689.11,74.26Z"/><path d="M702.94,62c.16-5.06,3.53-7,8.76-7,1.7,0,7.87.48,7.87,5.92V73c0,.9.44,1.26,1.17,1.26a6.89,6.89,0,0,0,1.18-.16v2.6a6.72,6.72,0,0,1-1.95.4c-3.16,0-3.65-1.62-3.77-3.24a9.64,9.64,0,0,1-7.66,3.44c-3.9,0-6.65-2.47-6.65-6.12,0-1.79.52-5.92,6.44-6.65l5.88-.73c.86-.08,1.87-.41,1.87-2.52s-1.62-3.44-5-3.44c-4.06,0-4.62,2.47-4.87,4.09ZM716,65.91c-.57.44-1.46.77-5.88,1.34-1.75.24-4.54.77-4.54,3.44,0,2.31,1.17,3.69,3.85,3.69,3.32,0,6.57-2.15,6.57-5Z"/><path d="M811.93,7.07h12.82c5.44,0,8.23,3.36,8.23,7.34a6.41,6.41,0,0,1-3.89,6.08c1.9.77,5.27,2.11,5.27,7.1,0,4.66-3.45,8.59-9.89,8.59H811.93Zm3.94,12.32H823c3.77,0,6.08-1.13,6.08-4.7,0-2.72-1.66-4.26-6-4.26h-7.14Zm0,13.43h8.39c4.1,0,6.17-2.07,6.17-5.32,0-4.09-3.61-4.9-6.82-4.9h-7.74Z"/><path d="M852,36.18V33.1L852,33a7,7,0,0,1-6.73,3.77c-3.12,0-6.89-1.5-6.89-6.57V15h3.56V29.05c0,3.48,1.79,4.66,4.1,4.66,4.5,0,5.84-4,5.84-7.06V15h3.57V36.18Z"/><path d="M864.41,36.18h-3.57V15h3.37V18.5h.08c1.42-2.47,3.28-4.13,6-4.13a2.87,2.87,0,0,1,.93.12v3.69h-1.34a5.39,5.39,0,0,0-5.43,5.67Z"/><path d="M891.46,29.53a9.16,9.16,0,0,1-3.77,5.8c-1,.65-2.36,1.46-5.76,1.46-6,0-9.49-4.5-9.49-10.62,0-6.57,3.16-11.8,10.18-11.8,6.12,0,9.12,4.86,9.12,12.36H876.25c0,4.42,2.07,7,6.17,7,3.36,0,5.35-2.6,5.47-4.18Zm-3.41-5.64c-.2-3.28-1.58-6.32-5.92-6.32-3.28,0-5.88,3-5.88,6.32Z"/><path d="M895.47,21.42c.17-5.07,3.53-7.05,8.76-7.05,1.7,0,7.87.48,7.87,5.92v12.2c0,.89.44,1.26,1.18,1.26a6.78,6.78,0,0,0,1.17-.16v2.59a6.71,6.71,0,0,1-1.94.41c-3.17,0-3.66-1.62-3.78-3.25a9.65,9.65,0,0,1-7.66,3.45c-3.89,0-6.65-2.47-6.65-6.12,0-1.79.53-5.92,6.44-6.65l5.89-.73c.85-.08,1.86-.41,1.86-2.52s-1.62-3.44-5-3.44c-4,0-4.62,2.47-4.86,4.09Zm13.06,3.94c-.57.44-1.46.77-5.88,1.33-1.74.25-4.54.77-4.54,3.45,0,2.31,1.17,3.69,3.85,3.69,3.33,0,6.57-2.15,6.57-5Z"/><path d="M931.56,36.18V33.1l-.08-.08a7,7,0,0,1-6.73,3.77c-3.12,0-6.89-1.5-6.89-6.57V15h3.57V29.05c0,3.48,1.78,4.66,4.09,4.66,4.5,0,5.84-4,5.84-7.06V15h3.57V36.18Z"/><path d="M968.35,36.18H965V33.26h-.08a6.39,6.39,0,0,1-6,3.53c-7.22,0-9.33-6.77-9.33-11.84,0-6,3.2-10.58,8.84-10.58a7.17,7.17,0,0,1,6.32,3.6h.09V7.07h3.57Zm-9.41-2.47c2.27,0,5.8-1.5,5.8-7.14,0-3.45-.57-9-5.72-9-5.52,0-5.8,5.23-5.8,8C953.22,30.18,955,33.71,958.94,33.71Z"/><path d="M986.72,36.18V33.1l-.09-.08a7,7,0,0,1-6.73,3.77c-3.12,0-6.89-1.5-6.89-6.57V15h3.57V29.05c0,3.48,1.78,4.66,4.09,4.66,4.5,0,5.84-4,5.84-7.06V15h3.57V36.18Z"/><path d="M1017.94,21c0-1.34-.53-3.57-5-3.57-1.09,0-4.22.36-4.22,3,0,1.74,1.1,2.15,3.86,2.84l3.56.89c4.43,1.09,6,2.72,6,5.6,0,4.37-3.61,7-8.4,7-8.39,0-9-4.87-9.12-7.42H1008c.13,1.66.61,4.34,5.64,4.34,2.56,0,4.87-1,4.87-3.37,0-1.7-1.18-2.27-4.22-3l-4.14-1c-3-.73-4.9-2.23-4.9-5.15,0-4.67,3.85-6.77,8-6.77,7.58,0,8.11,5.59,8.11,6.65Z"/><path d="M1039.59,36.18V33.1l-.08-.08a7,7,0,0,1-6.73,3.77c-3.12,0-6.89-1.5-6.89-6.57V15h3.57V29.05c0,3.48,1.78,4.66,4.09,4.66,4.5,0,5.84-4,5.84-7.06V15H1043V36.18Z"/><path d="M1052,36.18h-3.56V15h3.36V18.5h.08c1.42-2.47,3.29-4.13,6-4.13a2.87,2.87,0,0,1,.93.12v3.69h-1.33a5.39,5.39,0,0,0-5.44,5.67Z"/><path d="M1061.09,11.12v-4h3.57v4Zm3.57,25.06h-3.57V15h3.57Z"/><path d="M1086.88,36.18h-3.57V23.12c0-3.69-1-5.55-4.54-5.55-2,0-5.6,1.3-5.6,7.05V36.18h-3.57V15H1073v3h.08a7.7,7.7,0,0,1,6.41-3.6c3.28,0,7.42,1.33,7.42,7.38Z"/><path d="M1096.12,17.93V31.72c0,1.66,1.42,1.66,2.15,1.66h1.26v2.8c-1.3.12-2.31.29-2.68.29-3.53,0-4.3-2-4.3-4.55v-14h-2.87V15h2.87V9.05h3.57V15h3.41v3Z"/><path d="M1120.62,29.53a9.16,9.16,0,0,1-3.77,5.8c-1,.65-2.36,1.46-5.76,1.46-6,0-9.49-4.5-9.49-10.62,0-6.57,3.16-11.8,10.18-11.8,6.12,0,9.12,4.86,9.12,12.36h-15.49c0,4.42,2.07,7,6.16,7,3.37,0,5.36-2.6,5.48-4.18Zm-3.41-5.64c-.2-3.28-1.58-6.32-5.92-6.32-3.28,0-5.88,3-5.88,6.32Z"/><path d="M1142,36.18h-3.57V23.12c0-3.69-1-5.55-4.54-5.55-2,0-5.6,1.3-5.6,7.05V36.18h-3.57V15h3.37v3h.08a7.7,7.7,0,0,1,6.41-3.6c3.28,0,7.42,1.33,7.42,7.38Z"/><path d="M1164.49,36.18h-3.36V33.26h-.08a6.4,6.4,0,0,1-6,3.53c-7.21,0-9.32-6.77-9.32-11.84,0-6,3.2-10.58,8.84-10.58a7.17,7.17,0,0,1,6.32,3.6h.08V7.07h3.57Zm-9.4-2.47c2.27,0,5.79-1.5,5.79-7.14,0-3.45-.56-9-5.71-9-5.52,0-5.8,5.23-5.8,8C1149.37,30.18,1151.19,33.71,1155.09,33.71Z"/><path d="M1168.91,21.42c.17-5.07,3.53-7.05,8.76-7.05,1.71,0,7.87.48,7.87,5.92v12.2c0,.89.45,1.26,1.18,1.26a6.78,6.78,0,0,0,1.17-.16v2.59a6.63,6.63,0,0,1-1.94.41c-3.17,0-3.65-1.62-3.77-3.25a9.65,9.65,0,0,1-7.67,3.45c-3.89,0-6.65-2.47-6.65-6.12,0-1.79.53-5.92,6.45-6.65l5.88-.73c.85-.08,1.86-.41,1.86-2.52s-1.62-3.44-5-3.44c-4.06,0-4.63,2.47-4.87,4.09ZM1182,25.36c-.57.44-1.46.77-5.88,1.33-1.74.25-4.54.77-4.54,3.45,0,2.31,1.18,3.69,3.85,3.69,3.33,0,6.57-2.15,6.57-5Z"/><path d="M1208.45,36.18h-3.57V23.12c0-3.69-1.05-5.55-4.54-5.55-2,0-5.59,1.3-5.59,7.05V36.18h-3.57V15h3.36v3h.08a7.7,7.7,0,0,1,6.41-3.6c3.29,0,7.42,1.33,7.42,7.38Z"/><path d="M1217.7,17.93V31.72c0,1.66,1.42,1.66,2.15,1.66h1.25v2.8c-1.29.12-2.31.29-2.67.29-3.53,0-4.3-2-4.3-4.55v-14h-2.88V15h2.88V9.05h3.57V15h3.4v3Z"/><path d="M1252.65,36.18h-3.36V33.26h-.08a6.39,6.39,0,0,1-6,3.53c-7.22,0-9.33-6.77-9.33-11.84,0-6,3.2-10.58,8.84-10.58A7.2,7.2,0,0,1,1249,18h.08V7.07h3.56Zm-9.4-2.47c2.27,0,5.8-1.5,5.8-7.14,0-3.45-.57-9-5.72-9-5.52,0-5.8,5.23-5.8,8C1237.53,30.18,1239.35,33.71,1243.25,33.71Z"/><path d="M1275.2,29.53a9.12,9.12,0,0,1-3.77,5.8c-1,.65-2.35,1.46-5.76,1.46-6,0-9.49-4.5-9.49-10.62,0-6.57,3.16-11.8,10.18-11.8,6.13,0,9.13,4.86,9.13,12.36H1260c0,4.42,2.06,7,6.16,7,3.36,0,5.35-2.6,5.47-4.18Zm-3.41-5.64c-.2-3.28-1.58-6.32-5.91-6.32-3.29,0-5.88,3-5.88,6.32Z"/><path d="M1291.38,21c0-1.34-.52-3.57-5-3.57-1.09,0-4.21.36-4.21,3,0,1.74,1.09,2.15,3.85,2.84l3.57.89c4.42,1.09,6,2.72,6,5.6,0,4.37-3.61,7-8.4,7-8.39,0-9-4.87-9.12-7.42h3.45c.12,1.66.6,4.34,5.63,4.34,2.56,0,4.87-1,4.87-3.37,0-1.7-1.18-2.27-4.22-3l-4.13-1c-3-.73-4.91-2.23-4.91-5.15,0-4.67,3.85-6.77,8-6.77,7.58,0,8.11,5.59,8.11,6.65Z"/><path d="M811.65,51.67V47.62h3.57v4.05Zm3.57,25.07h-3.57V55.53h3.57Z"/><path d="M837.44,76.74h-3.57V63.68c0-3.69-1-5.56-4.54-5.56-2,0-5.59,1.3-5.59,7.06V76.74h-3.57V55.53h3.36v3h.08A7.69,7.69,0,0,1,830,54.92c3.29,0,7.42,1.34,7.42,7.38Z"/><path d="M854.35,61.57c0-1.34-.52-3.57-5-3.57-1.09,0-4.21.36-4.21,3,0,1.74,1.09,2.15,3.85,2.84l3.57.89c4.42,1.1,6,2.72,6,5.6,0,4.38-3.61,7-8.4,7-8.39,0-9-4.86-9.12-7.42h3.45c.12,1.66.6,4.34,5.63,4.34,2.56,0,4.87-1,4.87-3.36,0-1.71-1.18-2.28-4.22-3.05l-4.13-1c-3-.73-4.91-2.23-4.91-5.15,0-4.66,3.85-6.77,8-6.77,7.58,0,8.11,5.59,8.11,6.65Z"/><path d="M866.56,58.48V72.27c0,1.67,1.42,1.67,2.15,1.67H870v2.8c-1.29.12-2.31.28-2.67.28-3.53,0-4.3-2-4.3-4.54v-14h-2.88V55.53H863V49.6h3.57v5.93H870v2.95Z"/><path d="M873.13,51.67V47.62h3.57v4.05Zm3.57,25.07h-3.57V55.53h3.57Z"/><path d="M886,58.48V72.27c0,1.67,1.42,1.67,2.15,1.67h1.26v2.8c-1.3.12-2.31.28-2.68.28-3.53,0-4.3-2-4.3-4.54v-14h-2.87V55.53h2.87V49.6H886v5.93h3.41v2.95Z"/><path d="M906.34,76.74V73.65l-.08-.08a7,7,0,0,1-6.73,3.77c-3.12,0-6.9-1.5-6.9-6.57V55.53h3.57V69.6c0,3.48,1.78,4.66,4.1,4.66,4.5,0,5.84-4,5.84-7.06V55.53h3.56V76.74Z"/><path d="M919,58.48V72.27c0,1.67,1.42,1.67,2.15,1.67h1.26v2.8c-1.3.12-2.31.28-2.68.28-3.53,0-4.3-2-4.3-4.54v-14h-2.88V55.53h2.88V49.6H919v5.93h3.41v2.95Z"/><path d="M925.6,51.67V47.62h3.57v4.05Zm3.57,25.07H925.6V55.53h3.57Z"/><path d="M942.76,54.92c6.77,0,9.85,5.72,9.85,11.19s-3.08,11.19-9.85,11.19-9.86-5.72-9.86-11.19S936,54.92,942.76,54.92Zm0,19.3c5.11,0,6.16-5.27,6.16-8.11s-1-8.11-6.16-8.11-6.17,5.27-6.17,8.11S937.65,74.22,942.76,74.22Z"/><path d="M973.53,76.74H970V63.68c0-3.69-1.06-5.56-4.55-5.56-2,0-5.59,1.3-5.59,7.06V76.74h-3.57V55.53h3.36v3h.09a7.67,7.67,0,0,1,6.4-3.61c3.29,0,7.42,1.34,7.42,7.38Z"/><path d="M990.45,61.57c-.05-1.34-.53-3.57-5-3.57-1.09,0-4.21.36-4.21,3,0,1.74,1.09,2.15,3.85,2.84l3.57.89c4.42,1.1,6,2.72,6,5.6,0,4.38-3.61,7-8.39,7-8.4,0-9-4.86-9.13-7.42h3.45c.12,1.66.61,4.34,5.64,4.34,2.55,0,4.86-1,4.86-3.36,0-1.71-1.17-2.28-4.22-3.05l-4.13-1c-3-.73-4.91-2.23-4.91-5.15,0-4.66,3.85-6.77,8-6.77,7.58,0,8.11,5.59,8.11,6.65Z"/><path d="M1013.56,58.48V76.74H1010V58.48h-2.92V55.53H1010V51.88c0-3.21,2-4.67,5.51-4.67.53,0,1.06,0,1.63.08V50.5c-.45,0-1-.08-1.46-.08-1.54,0-2.11.77-2.11,2.47v2.64h3.57v2.95Z"/><path d="M1023.66,51.67V47.62h-3.57v4.05Zm0,3.86h-3.57V76.74h3.57Z"/><path d="M1045.88,76.74h-3.57V63.68c0-3.69-1.06-5.56-4.54-5.56-2,0-5.6,1.3-5.6,7.06V76.74h-3.57V55.53H1032v3h.08a7.69,7.69,0,0,1,6.41-3.61c3.28,0,7.42,1.34,7.42,7.38Z"/><path d="M1050.62,62c.17-5.06,3.53-7,8.76-7,1.7,0,7.87.48,7.87,5.92V73c0,.9.45,1.26,1.18,1.26a6.78,6.78,0,0,0,1.17-.16v2.6a6.65,6.65,0,0,1-1.94.4c-3.17,0-3.65-1.62-3.78-3.24a9.63,9.63,0,0,1-7.66,3.44c-3.89,0-6.65-2.47-6.65-6.12,0-1.79.53-5.92,6.45-6.65l5.88-.73c.85-.08,1.86-.41,1.86-2.52s-1.62-3.44-5-3.44c-4,0-4.62,2.47-4.86,4.09Zm13.06,3.94c-.57.44-1.46.77-5.88,1.34-1.74.24-4.54.77-4.54,3.44,0,2.31,1.18,3.69,3.85,3.69,3.33,0,6.57-2.15,6.57-5Z"/><path d="M1090.16,76.74h-3.57V63.68c0-3.69-1-5.56-4.54-5.56-2,0-5.6,1.3-5.6,7.06V76.74h-3.56V55.53h3.36v3h.08a7.69,7.69,0,0,1,6.41-3.61c3.29,0,7.42,1.34,7.42,7.38Z"/><path d="M1108.29,62.66c-.45-2.84-2-4.54-5-4.54-4.42,0-5.84,4.22-5.84,8s.89,8.15,5.8,8.15c2.39,0,4.46-1.78,5.07-5h3.45c-.37,3.37-2.44,8.11-8.64,8.11-6,0-9.49-4.5-9.49-10.62,0-6.57,3.16-11.8,10.18-11.8,5.55,0,7.66,4,8,7.74Z"/><path d="M1115,51.67V47.62h3.57v4.05Zm3.57,25.07H1115V55.53h3.57Z"/><path d="M1141.5,70.08a9.16,9.16,0,0,1-3.77,5.8c-1,.65-2.35,1.46-5.76,1.46-6,0-9.49-4.5-9.49-10.62,0-6.57,3.16-11.8,10.18-11.8,6.12,0,9.12,4.86,9.12,12.37h-15.49c0,4.42,2.07,7,6.17,7,3.36,0,5.35-2.59,5.47-4.18ZM1126,47h4.38l3.61,5.72h-2.72Zm12.12,17.48c-.2-3.29-1.58-6.33-5.92-6.33-3.28,0-5.88,3-5.88,6.33Z"/><path d="M1149.69,76.74h-3.57V55.53h3.37v3.52h.08c1.42-2.47,3.28-4.13,6-4.13a2.87,2.87,0,0,1,.93.12v3.69h-1.33a5.39,5.39,0,0,0-5.44,5.68Z"/><path d="M1176.74,70.08a9.16,9.16,0,0,1-3.77,5.8c-1,.65-2.35,1.46-5.76,1.46-6,0-9.49-4.5-9.49-10.62,0-6.57,3.16-11.8,10.18-11.8,6.12,0,9.12,4.86,9.12,12.37h-15.49c0,4.42,2.07,7,6.17,7,3.36,0,5.35-2.59,5.47-4.18Zm-3.41-5.63c-.2-3.29-1.58-6.33-5.92-6.33-3.28,0-5.88,3-5.88,6.33Z"/><path d="M1192.92,61.57c0-1.34-.53-3.57-5-3.57-1.09,0-4.22.36-4.22,3,0,1.74,1.1,2.15,3.86,2.84l3.56.89c4.42,1.1,6,2.72,6,5.6,0,4.38-3.61,7-8.4,7-8.39,0-9-4.86-9.12-7.42H1183c.13,1.66.61,4.34,5.64,4.34,2.56,0,4.87-1,4.87-3.36,0-1.71-1.18-2.28-4.22-3.05l-4.14-1c-3-.73-4.9-2.23-4.9-5.15,0-4.66,3.85-6.77,8-6.77,7.58,0,8.11,5.59,8.11,6.65Z"/><path d="M1232.5,56.38c-1.1-5.11-5.35-6.05-8.15-6.05-5.27,0-9.53,3.9-9.53,11.56,0,6.86,2.43,12.13,9.65,12.13,2.55,0,7-1.22,8.31-8h3.81c-1.62,11-10.54,11.48-12.73,11.48-6.61,0-13.1-4.3-13.1-15.5,0-9,5.11-15.16,13.59-15.16,7.5,0,11.39,4.66,12,9.53Z"/><path d="M1240.37,62c.16-5.06,3.52-7,8.76-7,1.7,0,7.86.48,7.86,5.92V73c0,.9.45,1.26,1.18,1.26a6.78,6.78,0,0,0,1.17-.16v2.6a6.58,6.58,0,0,1-1.94.4c-3.17,0-3.65-1.62-3.77-3.24a9.65,9.65,0,0,1-7.67,3.44c-3.89,0-6.65-2.47-6.65-6.12,0-1.79.53-5.92,6.45-6.65l5.88-.73c.85-.08,1.86-.41,1.86-2.52s-1.62-3.44-5-3.44c-4.06,0-4.63,2.47-4.87,4.09Zm13.05,3.94c-.57.44-1.46.77-5.88,1.34-1.74.24-4.54.77-4.54,3.44,0,2.31,1.18,3.69,3.85,3.69,3.33,0,6.57-2.15,6.57-5Z"/><path d="M1279.9,76.74h-3.57V63.68c0-3.69-1-5.56-4.54-5.56-2,0-5.59,1.3-5.59,7.06V76.74h-3.57V55.53H1266v3h.08a7.7,7.7,0,0,1,6.41-3.61c3.29,0,7.42,1.34,7.42,7.38Z"/><path d="M1284.65,62c.16-5.06,3.53-7,8.76-7,1.7,0,7.86.48,7.86,5.92V73c0,.9.45,1.26,1.18,1.26a7,7,0,0,0,1.18-.16v2.6a6.72,6.72,0,0,1-2,.4c-3.16,0-3.65-1.62-3.77-3.24a9.65,9.65,0,0,1-7.67,3.44c-3.89,0-6.65-2.47-6.65-6.12,0-1.79.53-5.92,6.45-6.65l5.88-.73c.85-.08,1.87-.41,1.87-2.52s-1.63-3.44-5-3.44c-4.06,0-4.62,2.47-4.87,4.09Zm13.06,3.94c-.57.44-1.46.77-5.88,1.34-1.75.24-4.55.77-4.55,3.44,0,2.31,1.18,3.69,3.86,3.69,3.32,0,6.57-2.15,6.57-5Z"/><path d="M1324.51,76.74h-3.37V73.81h-.08a6.38,6.38,0,0,1-6,3.53c-7.22,0-9.32-6.77-9.32-11.84,0-6,3.2-10.58,8.83-10.58a7.16,7.16,0,0,1,6.33,3.61h.08V47.62h3.57Zm-9.41-2.48c2.27,0,5.8-1.5,5.8-7.14,0-3.44-.57-9-5.72-9-5.51,0-5.8,5.23-5.8,7.95C1309.38,70.73,1311.21,74.26,1315.1,74.26Z"/><path d="M1328.93,62c.16-5.06,3.53-7,8.76-7,1.7,0,7.87.48,7.87,5.92V73c0,.9.44,1.26,1.17,1.26a6.89,6.89,0,0,0,1.18-.16v2.6a6.72,6.72,0,0,1-2,.4c-3.16,0-3.65-1.62-3.77-3.24a9.64,9.64,0,0,1-7.66,3.44c-3.9,0-6.65-2.47-6.65-6.12,0-1.79.52-5.92,6.44-6.65l5.88-.73c.86-.08,1.87-.41,1.87-2.52s-1.62-3.44-5-3.44c-4,0-4.62,2.47-4.86,4.09ZM1342,65.91c-.57.44-1.46.77-5.88,1.34-1.75.24-4.54.77-4.54,3.44,0,2.31,1.17,3.69,3.85,3.69,3.32,0,6.57-2.15,6.57-5Z"/><rect class="cls-1" x="14.22" y="10.53" width="32.85" height="66.23"/></svg>